<svg id="Capa_1" enable-background="new 0 0 512 512" height="512" viewBox="0 0 512 512" width="512" xmlns="http://www.w3.org/2000/svg"><g><path d="m495.976 400.794c3.998-27.686 6.024-55.878 6.024-83.794 0-28.125-2.058-56.528-6.115-84.421-1.649-11.339.319-22.585 5.689-32.511l.245-.452c6.66-12.312 10.181-26.181 10.181-40.117 0-20.677-16.822-37.499-37.499-37.499-13.936 0-27.778 3.506-40.032 10.14-.013.007-.026.015-.04.021-10.117 5.469-22.12 7.55-33.802 5.868-3.249-.468-6.55-.914-9.88-1.335-2.812-10.405-5.903-20.729-9.272-30.93-3.595-10.88-3.607-22.297-.047-32.993l.166-.498c4.422-13.279 5.48-27.55 3.062-41.269-.009-.049-.018-.099-.027-.148-1.766-9.806-7.229-18.348-15.395-24.065-8.205-5.744-18.157-7.95-28.021-6.212-13.67 2.41-26.646 8.231-37.538 16.838-.045.035-.09.07-.135.106-9.018 7.154-20.486 11.299-32.295 11.67-28.035.881-56.097 3.769-83.405 8.583-27.307 4.816-54.663 11.699-81.311 20.461-11.221 3.689-23.418 3.717-34.339.079-.031-.011-.063-.021-.097-.032-13.196-4.382-27.404-5.42-41.099-3.006-9.864 1.74-18.46 7.217-24.205 15.422-5.721 8.17-7.933 18.071-6.233 27.895.008.045.015.089.022.134 2.42 13.717 8.272 26.735 16.927 37.648 7.253 9.146 11.282 20.263 11.652 32.147.87 27.953 3.77 56.068 8.617 83.567 4.885 27.699 11.844 55.313 20.683 82.075 3.594 10.881 3.606 22.299.034 33.029l-.153.464c-4.408 13.238-5.475 27.46-3.085 41.136.008.047.016.095.023.142 3.205 18.169 19.066 30.99 36.913 30.989 2.153 0 4.337-.187 6.529-.573 13.724-2.42 26.747-8.276 37.663-16.937.024-.02.049-.039.073-.059.217-.172.443-.333.663-.502-1.047 4.176-2.611 8.226-4.694 12.075l-.245.452c-6.657 12.313-10.178 26.182-10.178 40.119 0 20.677 16.822 37.499 37.499 37.499 13.936 0 27.778-3.506 40.032-10.14.034-.019.067-.037.102-.056 10.104-5.441 22.084-7.51 33.738-5.834 27.767 4.002 55.903 6.03 83.629 6.03s55.862-2.028 83.628-6.029c11.66-1.681 23.633.393 33.737 5.833.034.019.068.038.104.057 12.254 6.634 26.097 10.14 40.032 10.14 20.677-.001 37.499-16.823 37.499-37.508 0-13.928-3.503-27.766-10.131-40.017-5.555-10.266-7.592-21.914-5.893-33.682zm-378.232-1.885c-.021.017-.042.034-.063.052-7.01 5.545-15.366 9.296-24.17 10.849-4.044.705-7.926-1.979-8.676-6.015-.004-.025-.009-.052-.013-.077-1.557-8.822-.871-18.014 1.985-26.594l.154-.464c5.623-16.894 5.618-34.84-.017-51.901-8.387-25.395-14.99-51.596-19.624-77.877-4.601-26.09-7.352-52.767-8.176-79.292-.573-18.378-6.844-35.616-18.133-49.854-5.548-6.995-9.306-15.337-10.872-24.127-.006-.033-.011-.066-.017-.1-.47-2.661.576-4.652 1.241-5.603.666-.95 2.18-2.615 4.841-3.084 8.826-1.556 17.989-.881 26.493 1.951.031.011.063.021.096.032 16.975 5.634 35.832 5.609 53.105-.07 25.292-8.315 51.249-14.848 77.15-19.415 25.902-4.567 52.528-7.307 79.138-8.144 18.152-.569 35.855-6.979 49.869-18.051.046-.036.092-.072.138-.108 7.022-5.571 15.4-9.339 24.228-10.895h.001c2.662-.475 4.652.576 5.603 1.241.95.665 2.614 2.179 3.083 4.841.007.036.013.072.02.108 1.533 8.795.843 17.949-1.991 26.46l-.167.498c-5.624 16.895-5.618 34.842.018 51.901 8.388 25.397 14.99 51.6 19.623 77.877 4.6 26.082 7.351 52.76 8.177 79.293.573 18.378 6.844 35.616 18.133 49.854 5.567 7.02 9.331 15.394 10.887 24.218.005.024.009.05.014.075.676 4.048-2.045 7.905-6.096 8.62-8.803 1.553-17.938.885-26.425-1.93-.025-.008-.05-.017-.075-.024-16.998-5.664-35.889-5.65-53.193.041-25.292 8.315-51.249 14.848-77.151 19.414-25.897 4.567-52.522 7.308-79.136 8.145-18.21.573-35.966 7.02-50.002 18.155zm348.453-162.011c3.851 26.467 5.803 53.417 5.803 80.102 0 26.486-1.923 53.236-5.716 79.507-2.628 18.199.554 36.265 9.198 52.245 4.264 7.881 6.518 16.782 6.518 25.749 0 4.135-3.364 7.499-7.499 7.499-8.928 0-17.797-2.237-25.654-6.471-.035-.019-.07-.038-.104-.057-15.756-8.528-34.363-11.793-52.393-9.195-26.354 3.797-53.051 5.723-79.35 5.723s-52.996-1.926-79.35-5.723c-18.036-2.598-36.637.668-52.393 9.195-.034.019-.068.037-.103.056-7.859 4.234-16.728 6.472-25.656 6.472-4.135 0-7.499-3.364-7.499-7.507 0-8.96 2.271-17.893 6.562-25.823l.245-.452c6.296-11.639 9.625-24.392 9.861-37.477.007 0 .014-.001.021-.001 28.04-.881 56.101-3.77 83.403-8.584 27.307-4.814 54.664-11.698 81.312-20.46 11.198-3.682 23.364-3.716 34.267-.104.027.01.056.019.083.028 13.222 4.404 27.461 5.452 41.185 3.033 20.362-3.59 34.008-23.077 30.418-43.44-.008-.044-.016-.088-.024-.133-2.432-13.672-8.275-26.646-16.903-37.524-7.253-9.146-11.282-20.263-11.652-32.147-.871-27.962-3.771-56.078-8.618-83.567-1.17-6.635-2.466-13.265-3.872-19.88 17.42 2.099 35.263-1.212 50.457-9.434.015-.008.03-.017.046-.025 7.873-4.254 16.764-6.502 25.714-6.502 4.135 0 7.499 3.364 7.499 7.507 0 8.96-2.271 17.893-6.562 25.823l-.245.452c-8.474 15.66-11.586 33.336-8.999 51.115z"/><path d="m183.869 163.18c0-24.813-20.187-45-45-45s-45 20.187-45 45 20.187 45 45 45 45-20.187 45-45zm-60 0c0-8.271 6.729-15 15-15s15 6.729 15 15-6.729 15-15 15-15-6.729-15-15z"/><path d="m276.742 183.869c24.813 0 45-20.187 45-45s-20.187-45-45-45-45 20.187-45 45 20.187 45 45 45zm0-60c8.271 0 15 6.729 15 15s-6.729 15-15 15-15-6.729-15-15 6.729-15 15-15z"/><path d="m208.18 301.053c0-24.813-20.187-45-45-45s-45 20.187-45 45 20.187 45 45 45 45-20.187 45-45zm-45 15c-8.271 0-15-6.729-15-15s6.729-15 15-15 15 6.729 15 15-6.729 15-15 15z"/><path d="m256.053 276.742c0 24.813 20.187 45 45 45s45-20.187 45-45-20.187-45-45-45-45 20.187-45 45zm60 0c0 8.271-6.729 15-15 15s-15-6.729-15-15 6.729-15 15-15 15 6.729 15 15z"/></g></svg>