<svg width="140" height="140" viewBox="0 0 140 140" fill="none" xmlns="http://www.w3.org/2000/svg">
<circle cx="70" cy="70" r="70" fill="#FFC0CB"/>
<g clip-path="url(#clip0)">
<path d="M107.495 92.6241C108.12 88.2982 108.437 83.8932 108.437 79.5313C108.437 75.1368 108.115 70.6988 107.481 66.3405C107.224 64.5688 107.531 62.8116 108.37 61.2607L108.408 61.1901C109.449 59.2663 109.999 57.0993 109.999 54.9218C109.999 51.691 107.371 49.0626 104.14 49.0626C101.962 49.0626 99.7996 49.6104 97.8849 50.6469C97.8829 50.648 97.8809 50.6493 97.8787 50.6502C96.2979 51.5047 94.4224 51.8299 92.5971 51.5671C92.0895 51.494 91.5737 51.4243 91.0534 51.3585C90.614 49.7327 90.131 48.1196 89.6046 46.5257C89.0429 44.8257 89.041 43.0418 89.5973 41.3705L89.6232 41.2927C90.3141 39.2179 90.4795 36.988 90.1016 34.8444C90.1002 34.8368 90.0988 34.829 90.0974 34.8213C89.8215 33.2891 88.9679 31.9544 87.692 31.0611C86.4099 30.1636 84.8549 29.819 83.3137 30.0905C81.1777 30.4671 79.1502 31.3766 77.4484 32.7215C77.4413 32.7269 77.4343 32.7324 77.4273 32.738C76.0182 33.8558 74.2263 34.5035 72.3812 34.5615C68.0007 34.6991 63.616 35.1504 59.3491 35.9026C55.0824 36.6551 50.808 37.7305 46.6443 39.0996C44.891 39.676 42.9852 39.6804 41.2788 39.1119C41.274 39.1102 41.269 39.1086 41.2637 39.1069C39.2018 38.4222 36.9818 38.2601 34.8419 38.6372C33.3007 38.9091 31.9576 39.7649 31.0599 41.0469C30.166 42.3235 29.8204 43.8705 30.086 45.4055C30.0873 45.4126 30.0884 45.4194 30.0894 45.4265C30.4676 47.5697 31.3819 49.6038 32.7343 51.309C33.8676 52.738 34.4971 54.4751 34.5549 56.3319C34.6909 60.6996 35.144 65.0926 35.9013 69.3893C36.6646 73.7172 37.7519 78.0319 39.133 82.2135C39.6946 83.9136 39.6965 85.6977 39.1384 87.3743L39.1144 87.4468C38.4257 89.5152 38.259 91.7374 38.6324 93.8743C38.6337 93.8816 38.6349 93.8891 38.636 93.8965C39.1368 96.7354 41.6151 98.7386 44.4037 98.7385C44.7401 98.7385 45.0813 98.7093 45.4238 98.649C47.5682 98.2708 49.603 97.3558 51.3087 96.0025C51.3124 95.9994 51.3163 95.9965 51.3201 95.9933C51.354 95.9665 51.3893 95.9413 51.4237 95.9149C51.2601 96.5674 51.0157 97.2002 50.6902 97.8016L50.6519 97.8722C49.6118 99.7961 49.0616 101.963 49.0616 104.141C49.0616 107.372 51.6901 110 54.9209 110C57.0984 110 59.2612 109.452 61.1759 108.416C61.1812 108.413 61.1863 108.41 61.1918 108.407C62.7705 107.557 64.6424 107.233 66.4634 107.495C70.802 108.121 75.1982 108.438 79.5304 108.438C83.8626 108.438 88.2588 108.121 92.5973 107.496C94.4191 107.233 96.2899 107.557 97.8687 108.407C97.874 108.41 97.8793 108.413 97.8849 108.416C99.7996 109.452 101.963 110 104.14 110C107.371 110 109.999 107.372 109.999 104.14C109.999 101.963 109.452 99.8011 108.416 97.8869C107.548 96.2829 107.23 94.4629 107.495 92.6241ZM48.3966 92.3296C48.3934 92.3322 48.3901 92.3349 48.3868 92.3377C47.2915 93.2041 45.9859 93.7902 44.6102 94.0329C43.9784 94.143 43.3718 93.7236 43.2546 93.093C43.254 93.0891 43.2532 93.0849 43.2526 93.081C43.0093 91.7026 43.1165 90.2663 43.5627 88.9257L43.5868 88.8532C44.4654 86.2135 44.4646 83.4094 43.5841 80.7436C42.2737 76.7757 41.2419 72.6818 40.5179 68.5754C39.799 64.4988 39.3691 60.3305 39.2404 56.186C39.1509 53.3144 38.171 50.621 36.4071 48.3963C35.5402 47.3033 34.953 45.9999 34.7084 44.6265C34.7074 44.6213 34.7066 44.6161 34.7057 44.6108C34.6323 44.1951 34.7957 43.884 34.8996 43.7354C35.0037 43.5869 35.2402 43.3268 35.656 43.2535C37.0351 43.0104 38.4668 43.1158 39.7955 43.5583C39.8004 43.5601 39.8054 43.5616 39.8105 43.5633C42.4629 44.4436 45.4093 44.4397 48.1082 43.5524C52.0601 42.2532 56.1159 41.2324 60.1629 40.5188C64.2101 39.8052 68.3704 39.3771 72.5282 39.2463C75.3644 39.1574 78.1305 38.1558 80.3202 36.4258C80.3274 36.4202 80.3346 36.4146 80.3418 36.409C81.439 35.5385 82.748 34.9497 84.1274 34.7066H84.1276C84.5435 34.6324 84.8545 34.7966 85.003 34.9005C85.1515 35.0044 85.4115 35.241 85.4848 35.6569C85.4859 35.6626 85.4868 35.6682 85.4879 35.6738C85.7274 37.048 85.6196 38.4783 85.1768 39.8082L85.1507 39.886C84.2719 42.5258 84.2729 45.3301 85.1535 47.9955C86.4641 51.9638 87.4957 56.058 88.2196 60.1638C88.9384 64.2391 89.3682 68.4076 89.4973 72.5533C89.5868 75.4249 90.5666 78.1183 92.3305 80.343C93.2004 81.4399 93.7885 82.7483 94.0316 84.1271C94.0324 84.1308 94.033 84.1349 94.0338 84.1388C94.1395 84.7713 93.7143 85.374 93.0813 85.4857C91.7059 85.7283 90.2785 85.624 88.9524 85.1841C88.9485 85.1829 88.9446 85.1815 88.9407 85.1804C86.2848 84.2954 83.333 84.2976 80.6293 85.1868C76.6774 86.486 72.6216 87.5068 68.5745 88.2202C64.528 88.9338 60.3679 89.3621 56.2094 89.4929C53.3641 89.5824 50.5898 90.5897 48.3966 92.3296ZM102.842 67.0154C103.444 71.1508 103.749 75.3618 103.749 79.5313C103.749 83.6697 103.449 87.8494 102.856 91.9543C102.445 94.7979 102.943 97.6207 104.293 100.118C104.959 101.349 105.312 102.74 105.312 104.141C105.312 104.787 104.786 105.313 104.14 105.313C102.745 105.313 101.359 104.963 100.131 104.301C100.126 104.298 100.121 104.296 100.115 104.293C97.6534 102.96 94.746 102.45 91.9288 102.856C87.811 103.449 83.6396 103.75 79.5304 103.75C75.4212 103.75 71.2498 103.449 67.132 102.856C64.3138 102.45 61.4074 102.96 58.9455 104.293C58.9402 104.296 58.9349 104.298 58.9295 104.301C57.7015 104.963 56.3157 105.313 54.9207 105.313C54.2746 105.313 53.749 104.787 53.749 104.14C53.749 102.74 54.1038 101.344 54.7743 100.105L54.8126 100.034C55.7963 98.2155 56.3165 96.2229 56.3534 94.1783C56.3545 94.1783 56.3555 94.1782 56.3566 94.1782C60.7379 94.0405 65.1224 93.5891 69.3884 92.8369C73.6551 92.0847 77.9296 91.0091 82.0934 89.6401C83.843 89.0647 85.744 89.0594 87.4476 89.6238C87.4518 89.6254 87.4563 89.6268 87.4605 89.6282C89.5265 90.3163 91.7513 90.4801 93.8957 90.1021C97.0773 89.5411 99.2094 86.4963 98.6485 83.3146C98.6473 83.3077 98.646 83.3008 98.6448 83.2938C98.2648 81.1576 97.3518 79.1304 96.0037 77.4307C94.8704 76.0016 94.2409 74.2646 94.183 72.4077C94.047 68.0386 93.5938 63.6455 92.8365 59.3504C92.6537 58.3136 92.4512 57.2777 92.2315 56.2441C94.9534 56.5721 97.7413 56.0547 100.115 54.7701C100.118 54.7688 100.12 54.7674 100.123 54.7661C101.353 54.1015 102.742 53.7502 104.14 53.7502C104.786 53.7502 105.312 54.2758 105.312 54.9232C105.312 56.3232 104.957 57.719 104.287 58.958L104.249 59.0286C102.924 61.4755 102.438 64.2374 102.842 67.0154Z" fill="white"/>
<path d="M58.7296 55.4969C58.7296 51.6198 55.5754 48.4656 51.6984 48.4656C47.8213 48.4656 44.6671 51.6198 44.6671 55.4969C44.6671 59.3739 47.8213 62.5281 51.6984 62.5281C55.5754 62.5281 58.7296 59.3739 58.7296 55.4969ZM49.3546 55.4969C49.3546 54.2045 50.406 53.1531 51.6984 53.1531C52.9907 53.1531 54.0421 54.2045 54.0421 55.4969C54.0421 56.7892 52.9907 57.8406 51.6984 57.8406C50.406 57.8406 49.3546 56.7892 49.3546 55.4969Z" fill="white"/>
<path d="M73.241 58.7295C77.118 58.7295 80.2722 55.5753 80.2722 51.6983C80.2722 47.8212 77.118 44.667 73.241 44.667C69.3639 44.667 66.2097 47.8212 66.2097 51.6983C66.2097 55.5753 69.3639 58.7295 73.241 58.7295ZM73.241 49.3545C74.5333 49.3545 75.5847 50.4059 75.5847 51.6983C75.5847 52.9906 74.5333 54.042 73.241 54.042C71.9486 54.042 70.8972 52.9906 70.8972 51.6983C70.8972 50.4059 71.9486 49.3545 73.241 49.3545Z" fill="white"/>
<path d="M62.5282 77.0395C62.5282 73.1625 59.374 70.0083 55.4969 70.0083C51.6199 70.0083 48.4657 73.1625 48.4657 77.0395C48.4657 80.9166 51.6199 84.0708 55.4969 84.0708C59.374 84.0708 62.5282 80.9166 62.5282 77.0395ZM55.4969 79.3833C54.2046 79.3833 53.1532 78.3319 53.1532 77.0395C53.1532 75.7472 54.2046 74.6958 55.4969 74.6958C56.7893 74.6958 57.8407 75.7472 57.8407 77.0395C57.8407 78.3319 56.7893 79.3833 55.4969 79.3833Z" fill="white"/>
<path d="M70.0083 73.2409C70.0083 77.118 73.1625 80.2722 77.0396 80.2722C80.9166 80.2722 84.0708 77.118 84.0708 73.2409C84.0708 69.3639 80.9166 66.2097 77.0396 66.2097C73.1625 66.2097 70.0083 69.3639 70.0083 73.2409ZM79.3833 73.2409C79.3833 74.5333 78.3319 75.5847 77.0396 75.5847C75.7472 75.5847 74.6958 74.5333 74.6958 73.2409C74.6958 71.9486 75.7472 70.8972 77.0396 70.8972C78.3319 70.8972 79.3833 71.9486 79.3833 73.2409Z" fill="white"/>
</g>
<defs>
<clipPath id="clip0">
<rect width="80" height="80" fill="white" transform="translate(30 30)"/>
</clipPath>
</defs>
</svg>
