<svg height="512pt" viewBox="0 -69 512 512" width="512pt" xmlns="http://www.w3.org/2000/svg"><path d="m502 353.382812h-52.683594v-13.445312h16.351563c5.523437 0 10-4.476562 10-10v-65.40625c0-12.015625-9.777344-21.792969-21.796875-21.792969h-42.230469v-26.921875h22.214844c4.234375 0 8.144531-2.113281 10.460937-5.65625 2.320313-3.546875 2.691406-7.980468.992188-11.863281-7.3125-16.722656-9.636719-34.96875-10.371094-44.355469v-.003906c-.730469-9.347656-8.660156-16.671875-18.046875-16.671875h-30.503906c-9.386719 0-17.316407 7.324219-18.046875 16.675781-.734375 9.386719-3.058594 27.628906-10.371094 44.355469-1.699219 3.882813-1.328125 8.316406.992188 11.863281 2.316406 3.542969 6.226562 5.65625 10.460937 5.65625h22.21875v26.921875h-42.238281c-12.015625 0-21.792969 9.777344-21.792969 21.792969v65.40625c0 5.523438 4.480469 10 10 10h16.351563v13.445312h-53.398438v-21.511718h3.378906c5.519532 0 10-4.476563 10-10v-46.886719c0-12.058594-8.875-22.085937-20.4375-23.890625v-66.125c0-17.394531-14.152344-31.546875-31.546875-31.546875h-192.566406c-17.394531 0-31.542969 14.152344-31.542969 31.546875v66.125c-11.5625 1.804688-20.4375 11.832031-20.4375 23.890625v46.886719c0 5.523437 4.476563 10 10 10h3.375v21.511718h-20.785156c-5.523438 0-10 4.476563-10 10 0 5.519532 4.476562 10 10 10h492c5.523438 0 10-4.480468 10-10 0-5.523437-4.476562-10-10-10zm-113.867188-196.117187h27.011719c.796875 8.96875 2.800781 23.554687 7.816407 38.550781h-42.644532c5.015625-15 7.019532-29.582031 7.816406-38.550781zm-38.730468 105.472656h104.46875c.992187 0 1.796875.804688 1.796875 1.792969v16.808594h-108.058594v-16.808594c0-.988281.804687-1.792969 1.792969-1.792969zm-1.792969 38.597657h108.058594v18.601562h-108.058594zm26.351563 38.601562h55.355468v13.445312h-55.355468zm-316.113282-154.972656c0-6.363282 5.175782-11.542969 11.542969-11.542969h192.566406c6.367188 0 11.546875 5.179687 11.546875 11.542969v65.839844h-14.023437v-22.601563c0-5.347656-3.140625-10.238281-8-12.460937l-1.730469-.792969c-18.613281-8.527344-39.96875-8.527344-58.582031 0l-1.730469.789062c-4.859375 2.226563-8 7.117188-8 12.464844v22.601563h-28.308594v-22.601563c0-5.347656-3.140625-10.238281-8-12.460937l-1.730468-.792969c-18.617188-8.527344-39.96875-8.527344-58.585938 0l-1.730469.792969c-4.859375 2.226562-8 7.117187-8 12.460937v22.601563h-17.234375zm181.632813 65.839844h-38.042969v-18.515626c12.199219-4.976562 25.84375-4.976562 38.042969 0zm-106.351563 0h-38.042968v-18.515626c12.199218-4.980468 25.84375-4.980468 38.042968 0zm-82.339844 102.578124v-21.511718h120.210938c5.523438 0 10-4.476563 10-10 0-5.523438-4.476562-10-10-10h-133.589844v-36.886719c0-2.304687 1.875-4.179687 4.179688-4.179687h248.167968c2.304688 0 4.179688 1.875 4.179688 4.179687v36.886719h-42.9375c-5.523438 0-10 4.476562-10 10 0 5.523437 4.476562 10 10 10h29.558594v21.511718zm0 0"/><path d="m181.003906 115.796875c2.074219 3.757813 5.1875 6.734375 8.867188 8.652344.074218.035156.144531.074219.21875.109375.015625.007812.027344.015625.042968.023437 2.6875 1.355469 5.695313 2.164063 8.875 2.273438.023438 0 .042969 0 .0625.003906.089844 0 .183594.003906.273438.003906.027344 0 .054688.003907.085938.003907h.332031 121.113281c.925781 0 1.835938-.058594 2.726562-.171876 10.53125-1.339843 18.703126-10.359374 18.703126-21.253906v-84.011718c0-11.816407-9.613282-21.429688-21.429688-21.429688h-121.113281c-11.816407 0-21.425781 9.613281-21.425781 21.429688v84.011718c0 3.648438.914062 7.085938 2.53125 10.097656.042968.085938.089843.171876.136718.257813zm141.300782-10.355469c0 .542969-.300782 1.011719-.746094 1.253906-.203125.113282-.433594.175782-.679688.175782h-116.832031c9.570313-15.230469 24.5-36.742188 39.410156-37.832032 10.71875-.773437 20.925781 5.542969 32.746094 12.867188 13.308594 8.242188 28.078125 17.40625 46.101563 16.914062zm-1.425782-85.441406c.785156 0 1.425782.640625 1.425782 1.429688v12.269531c-1.859376.542969-3.796876.820312-5.757813.820312-9.234375 0-17.066406-6.121093-19.65625-14.519531zm-121.117187 0h76.671875c2.925781 19.511719 19.800781 34.519531 40.113281 34.519531 1.933594 0 3.859375-.136719 5.757813-.410156v24.671875c-12.378907.492188-23.269532-6.257812-35.566407-13.875-13.542969-8.390625-27.550781-17.070312-44.738281-15.8125-17.816406 1.300781-32.414062 15.527344-43.664062 30.554688v-58.21875c0-.789063.640624-1.429688 1.425781-1.429688zm0 0"/><path d="m211 311.871094c-5.523438 0-10 4.476562-10 10 0 5.523437 4.476562 10 10 10h.023438c5.523437 0 9.988281-4.476563 9.988281-10 0-5.523438-4.488281-10-10.011719-10zm0 0"/></svg>