<svg height="512pt" viewBox="0 -96 512 512" width="512pt" xmlns="http://www.w3.org/2000/svg"><path d="m502 299.394531h-83.835938l-2.816406-35.222656h10.066406c14.796876 0 27.238282-11.039063 29.019532-25.707031l11.332031-74.789063c13.394531-3.660156 30.0625-13.308593 32.035156-33.011719 1.109375-11.109374-3.898437-21.304687-14.097656-28.707031-9.113281-6.613281-21.300781-10.203125-32.730469-10.25l6.34375-15.09375c4.476563-10.65625 4.113282-22.71875-.992187-33.085937-5.109375-10.367188-14.449219-18.003906-25.625-20.945313-114.289063-30.109375-235.109375-30.109375-349.394531 0-11.179688 2.941407-20.519532 10.578125-25.625 20.945313-5.109376 10.367187-5.46875 22.429687-.992188 33.085937l6.34375 15.097657c-11.433594.042968-23.621094 3.632812-32.734375 10.246093-10.199219 7.402344-15.207031 17.597657-14.097656 28.707031 1.972656 19.703126 18.644531 29.351563 32.035156 33.011719l11.335937 74.789063c1.777344 14.667968 14.21875 25.707031 29.015626 25.707031h5.078124l-2.820312 35.222656h-78.84375c-5.523438 0-10 4.476563-10 10 0 5.519531 4.476562 10 10 10h492c5.523438 0 10-4.480469 10-10 0-5.523437-4.476562-10-10-10zm-428.382812-247.027343c2.546874-5.171876 7.207031-8.980469 12.78125-10.445313 110.953124-29.230469 228.246093-29.230469 339.207031 0 5.570312 1.46875 10.230469 5.273437 12.777343 10.445313 2.546876 5.171874 2.726563 11.183593.492188 16.496093l-12.769531 30.386719c-.320313.253906-.640625.511719-.960938.773438-.007812.011718-.019531.019531-.03125.027343-.097656.082031-.195312.167969-.292969.25-.027343.023438-.054687.046875-.082031.070313-.082031.070312-.164062.140625-.242187.210937-.035156.03125-.070313.0625-.105469.09375-.074219.066407-.148437.128907-.21875.195313-.039063.03125-.074219.066406-.113281.101562-.070313.0625-.140625.125-.210938.191406-.039062.035157-.078125.070313-.117187.109376-.066407.058593-.128907.121093-.195313.183593-.042968.039063-.085937.078125-.128906.121094-.070312.066406-.144531.136719-.214844.207031-.082031.082032-.167968.160156-.25.242188-.046875.042968-.09375.089844-.140625.136718-.070312.070313-.140625.140626-.210937.210938-.027344.027344-.054688.058594-.082032.085938-.074218.074218-.148437.148437-.222656.226562-.023437.023438-.050781.050781-.074218.078125-.078126.078125-.152344.15625-.226563.238281-.019531.019532-.039063.039063-.058594.058594-.082031.089844-.164062.175781-.246093.265625-.007813.007813-.015626.011719-.019532.019531-10.199218 11.019532-16.523437 30.191406-18.855468 57.261719v.03125c-.023438.230469-.039063.457031-.058594.6875-.003906.035156-.007813.074219-.011719.113281-.011719.136719-.023437.273438-.035156.414063-.042969.558593-.085938 1.113281-.128907 1.664062-46.265624-13.660156-94.988281-13.324219-141.132812 1.011719l-5.90625 1.835938-5.90625-1.835938c-45.84375-14.238281-94.230469-14.664062-140.222656-1.277344-.007813-.109375-.019532-.222656-.027344-.332031-.003906-.027344-.003906-.050781-.007812-.074219-.015626-.21875-.03125-.4375-.050782-.660156-.003906-.035156-.003906-.066406-.007812-.101562-.003906-.074219-.011719-.152344-.019532-.230469-.007812-.117188-.019531-.234375-.027343-.351563-.003907-.074218-.011719-.144531-.019531-.21875-.015626-.191406-.03125-.378906-.046876-.570312-.003906-.066406-.011718-.128906-.015624-.195313-.019532-.207031-.035157-.414062-.054688-.621093-.003906-.015626-.003906-.027344-.003906-.042969-2.363282-26.425781-8.566406-45.238281-18.507813-56.203125-.003906-.003906-.011719-.011719-.015625-.015625-.074218-.082031-.148437-.164063-.222656-.242188-.027344-.03125-.058594-.0625-.085938-.09375-.0625-.066406-.125-.132812-.183593-.199219-.046875-.046874-.089844-.09375-.132813-.136718-.050781-.058594-.105468-.113282-.160156-.167969-.054688-.058594-.109375-.113281-.164062-.171875-.042969-.042969-.085938-.089844-.128907-.132812-.078125-.078126-.15625-.15625-.234375-.234376-.023437-.023437-.046875-.046874-.066406-.070312-1.070312-1.066406-2.179688-2.046875-3.328125-2.9375l-12.769531-30.386719c-2.230469-5.3125-2.050782-11.324219.496094-16.496093zm36.269531 147.925781c.191406-4.480469.34375-10.097657.3125-16.382813l.890625-.277344c43.375-13.476562 89.230468-13.476562 132.605468 0l1.839844.570313v16.089844zm-32.472657 35.699219c-.011718-.121094-.027343-.242188-.046874-.359376l-12.40625-81.855468c-.671876-4.4375-4.21875-7.882813-8.671876-8.429688-.207031-.023437-20.8125-2.929687-22.1875-16.675781-.386718-3.84375 1.613282-7.386719 5.941407-10.527344 8.371093-6.078125 22.800781-8.285156 30.878906-4.726562 1.609375.707031 3.136719 1.820312 4.578125 3.3125.019531.023437.039062.042969.058594.0625.019531.019531.035156.039062.054687.058593 7.136719 7.546876 12.105469 24.578126 13.855469 48.019532.039062.539062.078125 1.074218.113281 1.605468v.007813c.007813.09375.011719.1875.019531.28125.007813.105469.015626.207031.019532.3125.003906.023437.003906.050781.007812.078125.007813.152344.019532.304688.027344.460938.003906.03125.003906.0625.007812.097656.007813.152344.019532.308594.027344.464844v.015624c.011719.175782.023438.347657.03125.523438.003906.011719.003906.027344.003906.039062.78125 13.402344.421876 25.84375.039063 33.339844-.011719.222656-.023437.4375-.035156.652344-.003907.109375-.011719.21875-.015625.324219-.214844 3.914062-.417969 6.246093-.425782 6.3125-.203124 2.253906.355469 4.398437 1.46875 6.179687.007813.015625.015626.03125.027344.046875.035156.054688.066406.109375.101563.160157.007812.007812.011719.015624.015625.023437.011718.015625.023437.03125.035156.046875.027344.046875.058594.089844.085938.132812.007812.011719.015624.023438.027343.035157.011719.015625.023438.035156.035157.050781.027343.039062.054687.078125.082031.113281.023437.03125.046875.0625.066406.09375.027344.035157.054687.070313.082031.109375.015625.015625.03125.035156.042969.054688.011719.011718.023437.027344.03125.039062.027344.03125.054687.066406.078125.097656.027344.03125.054688.066407.082031.097657.027344.035156.058594.070312.085938.105469.023437.027343.046875.054687.070312.082031.039063.042969.078125.085937.117188.128906.015625.015625.027343.035156.042969.050781l.007812.007813c.175781.1875.355469.375.546875.550781 1.355469 1.269531 3.066406 2.167969 4.992187 2.527344.019532 0 .035157.003906.054688.007812.058594.011719.121094.019532.179688.03125.035156.007813.070312.011719.105468.015625.046875.007813.089844.011719.136719.019531.046875.007813.09375.015626.140625.019532.035156.003906.066406.007812.101562.011718.054688.007813.109376.011719.164063.019532.015625 0 .03125.003906.050781.003906.019532 0 .035156.003906.054688.003906.035156.003906.074218.003906.109375.007813.0625.003906.121093.007812.179687.011719.015625 0 .035156.003906.050782.003906.171874.007812.347656.015625.519531.015625.027343 0 .054687-.003907.082031-.003907h212.988281c5.519531 0 10-4.476562 10-10 0-5.519531-4.480469-10-10-10h-46.800781v-16.085937l1.839844-.570313c43.375-13.476562 89.230468-13.476562 132.605468 0l1.820313.5625c-.007813 1.6875 0 3.320313.015625 4.898438v11.195312h-9.480469c-5.523437 0-10 4.480469-10 10 0 5.523438 4.476563 10 10 10h20.191407c.316406.007813.636718 0 .960937-.027343.035156-.003907.070313-.003907.109375-.007813.015625 0 .035156-.003906.054688-.003906.019531-.003906.035156-.003906.054687-.007812.050781-.003907.105469-.007813.15625-.015626.035156-.003906.074219-.007812.109375-.011718.046875-.003906.089844-.011719.132812-.019532.050782-.003906.101563-.011718.152344-.019531.027344-.003906.054688-.007812.085938-.011719.066406-.011718.132812-.023437.199218-.035156.011719-.003906.023438-.003906.035157-.007812 4.757812-.878906 8.21875-5.070313 8.171875-9.917969 0-.011719 0-.019531 0-.03125 0-.042969-.003906-.085937-.003906-.128906-.003907-.21875-.015626-.433594-.035157-.652344-.023437-.21875-1.96875-22.402344-.070312-45.898437.007812-.09375.011719-.1875.019531-.277344 0-.007813 0-.019532.003906-.027344 1.875-22.777344 6.84375-39.261719 13.910156-46.527344.019532-.019531.035157-.039062.054688-.058594.03125-.03125.0625-.0625.09375-.09375.039062-.039062.082031-.082031.121094-.121093.011718-.011719.023437-.023438.035156-.035157 1.328125-1.304687 2.730469-2.289062 4.199219-2.933593 8.078125-3.554688 22.507812-1.347657 30.878906 4.726562 4.328125 3.144531 6.328125 6.683594 5.941406 10.527344-1.378906 13.785156-22.023437 16.65625-22.1875 16.679687-4.453125.542969-8 3.988282-8.671875 8.425782l-12.40625 81.855468c-.019531.117188-.03125.238282-.046875.359376-.535156 4.664062-4.476562 8.179687-9.171875 8.179687h-338.824218c-4.695313 0-8.636719-3.519531-9.171876-8.179687zm279.589844 28.179687 14.792969 35.222656h-236.585937l14.792968-35.222656zm-248.097656 35.222656 2.820312-35.222656h16.585938l-14.792969 35.222656zm284.585938 0-14.796876-35.222656h16.585938l2.820312 35.222656zm0 0"/><path d="m241.847656 86.285156c1.882813 1.605469 4.1875 2.390625 6.480469 2.390625 2.828125 0 5.640625-1.195312 7.617187-3.515625l7.667969-9c3.578125-4.207031 3.074219-10.519531-1.128906-14.097656-4.203125-3.582031-10.515625-3.078125-14.097656 1.125l-7.667969 9c-3.578125 4.207031-3.074219 10.519531 1.128906 14.097656zm0 0"/><path d="m141.847656 104.285156c1.882813 1.605469 4.1875 2.390625 6.480469 2.390625 2.828125 0 5.640625-1.195312 7.617187-3.515625l7.667969-9c3.582031-4.207031 3.074219-10.519531-1.128906-14.097656-4.207031-3.582031-10.515625-3.078125-14.097656 1.125l-7.667969 9c-3.578125 4.207031-3.074219 10.519531 1.128906 14.097656zm0 0"/><path d="m341.847656 104.285156c1.882813 1.605469 4.1875 2.390625 6.480469 2.390625 2.828125 0 5.640625-1.195312 7.617187-3.515625l7.667969-9c3.578125-4.207031 3.074219-10.519531-1.128906-14.097656-4.203125-3.582031-10.515625-3.078125-14.097656 1.125l-7.667969 9c-3.578125 4.207031-3.074219 10.519531 1.128906 14.097656zm0 0"/><path d="m352.332031 220.292969h.027344c5.519531 0 9.984375-4.480469 9.984375-10 0-5.523438-4.488281-10-10.011719-10-5.523437 0-10 4.476562-10 10 0 5.519531 4.480469 10 10 10zm0 0"/></svg>