<svg height="512pt" viewBox="0 -15 512 511" width="512pt" xmlns="http://www.w3.org/2000/svg"><path d="m397.632812 148.289062h-.027343c-5.519531 0-9.984375 4.476563-9.984375 10 0 5.523438 4.488281 10 10.011718 10 5.523438 0 10-4.476562 10-10 0-5.523437-4.480468-10-10-10zm0 0"/><path d="m512 41.859375c0-22.804687-18.558594-41.359375-41.371094-41.359375-13.539062 0-25.578125 6.535156-33.128906 16.617188h-363c-7.550781-10.082032-19.589844-16.617188-33.128906-16.617188-22.8125 0-41.371094 18.554688-41.371094 41.359375 0 22.785156 18.515625 41.328125 41.289062 41.371094v93.277343c-2.269531-1.046874-4.933593-1.25-7.476562-.363281-5.21875 1.816407-7.972656 7.515625-6.15625 12.730469 2.125 6.105469 6.195312 14.984375 13.632812 23.472656v259.273438c0 5.523437 4.480469 10 10 10h16.792969c11.789063 0 21.71875-8.113282 24.503907-19.042969l8.707031-.117187c12.734375-.15625 23.097656-10.65625 23.097656-23.402344v-1.539063c.003906-.074219.003906-.152343.003906-.230469v-3.207031h7.515625c11.898438 0 21.691406-9.296875 22.289063-21.167969.886719-17.609374 1.484375-52.835937-4.441407-90.871093-5.335937-34.25-14.6875-63.078125-27.886718-86.09375.097656-.011719.195312-.027344.292968-.039063 5.476563-.710937 9.34375-5.726562 8.632813-11.203125-.539063-4.148437-3.546875-7.371093-7.359375-8.382812 10.585938-6.328125 23.71875-15.414063 36.675781-27.625 35.457031-33.414063 53.738281-75.4375 53.25-122.082031h85.277344c-.484375 46.644531 17.792969 88.667968 53.253906 122.082031 12.957031 12.210937 26.085938 21.296875 36.671875 27.625-3.808594 1.011719-6.816406 4.234375-7.355468 8.386719-.710938 5.476562 3.152343 10.492187 8.632812 11.199218.097656.015625.191406.027344.292969.039063-13.203125 23.019531-22.550781 51.84375-27.886719 86.09375-5.929688 38.035156-5.328125 73.261719-4.441406 90.875.597656 11.867187 10.386718 21.164062 22.285156 21.164062h7.519531v3.210938.230469 1.535156c0 12.746094 10.363281 23.246094 23.085938 23.402344l8.722656.117187c2.78125 10.933594 12.714844 19.042969 24.503906 19.042969h16.789063c5.523437 0 10-4.476563 10-10v-259.277344c7.441406-8.488281 11.507812-17.363281 13.636718-23.46875 1.8125-5.214844-.941406-10.914062-6.15625-12.730469-2.546874-.890625-5.210937-.683593-7.476562.363281v-93.277343c22.765625-.042969 41.28125-18.585938 41.28125-41.371094zm-41.371094-21.359375c11.785156 0 21.371094 9.582031 21.371094 21.359375 0 11.785156-9.585938 21.371094-21.371094 21.371094-2.320312 0-4.59375-.367188-6.761718-1.085938-.558594-.1875-1.113282-.398437-1.65625-.632812-.113282-.050781-.222657-.101563-.335938-.148438-4.273438-1.933593-7.894531-5.296875-10.117188-9.472656-1.300781-2.429687-2.113281-5.125-2.390624-7.894531-.070313-.703125-.105469-1.414063-.105469-2.132813 0-.96875.0625-1.929687.1875-2.871093 1.410156-10.425782 10.371093-18.492188 21.179687-18.492188zm-41.097656 16.617188c-.179688 1.558593-.269531 3.140624-.269531 4.742187 0 1.589844.089843 3.175781.273437 4.75h-347.070312c.183594-1.574219.273437-3.160156.273437-4.75 0-1.601563-.089843-3.1875-.269531-4.742187zm-409.53125 4.742187c0-11.777344 9.585938-21.359375 21.371094-21.359375 10.808594 0 19.769531 8.066406 21.175781 18.492188.125.941406.1875 1.902343.1875 2.871093 0 .710938-.03125 1.410157-.097656 2.105469-.277344 2.78125-1.089844 5.484375-2.398438 7.933594-.160156.300781-.328125.59375-.503906.886718-.085937.144532-.175781.289063-.265625.433594-.179688.289063-.367188.570313-.5625.847656-.292969.417969-.597656.820313-.917969 1.214844-.078125.097656-.15625.191406-.234375.285156-2.535156 3.015626-5.890625 5.328126-9.625 6.570313-2.164062.722656-4.4375 1.089844-6.757812 1.089844-11.785156 0-21.371094-9.585938-21.371094-21.371094zm114.222656 370.046875c-.0625 1.21875-1.078125 2.171875-2.3125 2.171875h-7.515625v-42.789063c0-5.523437-4.480469-10-10-10-5.523437 0-10 4.476563-10 10v52.5625c-.003906.074219-.003906.152344-.003906.226563v14.980469c0 1.855468-1.5 3.378906-3.355469 3.402344l-7.675781.105468v-82.277344c0-5.523437-4.476563-10-10-10-5.519531 0-10 4.476563-10 10v92.257813.152344 3.648437c0 2.90625-2.367187 5.269532-5.28125 5.269532h-6.789063v-233.660157c9.769532 5.050781 22.136719 8.589844 37.761719 9.144531 14.863281 21.972657 25.25 51.492188 30.941407 88.019532 5.65625 36.269531 5.078124 69.941406 4.230468 86.785156zm12.664063-238.230469c-25.640625 24.34375-52.773438 35.347657-53.214844 35.523438-2.90625 1.152343-5.101563 3.589843-5.945313 6.582031-10.539062-1.921875-19.421874-5.859375-26.4375-11.710938v-125.933593c.046876-.023438.09375-.050781.140626-.078125.097656-.050782.195312-.105469.292968-.160156.058594-.035157.121094-.070313.179688-.105469.09375-.050781.1875-.105469.277344-.160157.0625-.035156.121093-.070312.179687-.101562.09375-.054688.1875-.113281.28125-.167969.058594-.035156.113281-.066406.171875-.101562.09375-.058594.191406-.117188.289062-.175781.050782-.035157.105469-.066407.15625-.097657.109376-.070312.21875-.136719.328126-.207031.035156-.023438.074218-.046875.109374-.070312.144532-.089844.285157-.183594.425782-.277344.007812 0 .011718-.003906.015625-.007813.300781-.199219.601562-.402343.902343-.609375.015626-.011718.03125-.023437.046876-.035156.128906-.089844.257812-.179688.386718-.273438.023438-.019531.050782-.035156.078125-.054687.121094-.089844.238281-.175781.359375-.261719.023438-.019531.050782-.039062.074219-.058594.125-.089843.246094-.183593.371094-.277343.015625-.011719.035156-.027344.054687-.039063.136719-.105468.273438-.207031.40625-.3125.003906-.003906.007813-.007812.007813-.007812 2.898437-2.261719 5.488281-4.90625 7.703125-7.882813h79.492187c.238281 6.539063-.027343 16.199219-2.398437 26.871094-5.5625 25.054687-19.695313 43.902344-42.003906 56.019531-4.851563 2.636719-6.648438 8.710938-4.011719 13.5625 1.8125 3.335938 5.246093 5.230469 8.796875 5.230469 1.609375 0 3.246094-.394531 4.761718-1.21875 27.480469-14.925781 45.515626-39.152344 52.15625-70.058594 2.566407-11.9375 2.957032-22.699219 2.71875-30.40625h19.328126c.5625 41.234375-15.046876 77.214844-46.480469 107.0625zm171.746093-107.0625h19.308594c-.550781 17.171875 2.035156 49.523438 24.996094 76.492188 1.976562 2.324219 4.789062 3.519531 7.617188 3.519531 2.292968 0 4.597656-.785156 6.480468-2.386719 4.203125-3.582031 4.710938-9.890625 1.128906-14.097656-18.847656-22.140625-20.644531-49.761719-20.167968-63.527344h79.476562c.011719.015625.019532.027344.03125.039063.082032.109375.164063.21875.246094.328125.023438.03125.050781.066406.074219.097656.328125.429687.664062.847656 1.007812 1.261719.019531.023437.039063.046875.058594.070312.09375.113282.1875.226563.285156.335938.027344.035156.054688.066406.085938.101562.085937.101563.171875.199219.257812.300782.03125.035156.066407.074218.101563.113281.085937.097656.171875.195312.257812.292969.03125.035156.0625.066406.09375.101562.09375.105469.1875.207031.28125.3125.027344.023438.050782.050781.074219.078125.105469.113281.210937.226563.320313.339844.015624.015625.03125.03125.046874.050781.25.261719.503907.523438.761719.777344v.003906c.121094.121094.246094.242188.367188.359375.03125.03125.0625.058594.089843.085937.097657.09375.195313.1875.292969.28125.035157.035157.074219.070313.113281.105469.089844.085938.183594.171875.273438.257813.039062.035156.078125.070312.117188.105468.09375.082032.1875.167969.28125.253907.039062.035156.074218.066406.113281.101562.101562.089844.199219.175781.300781.265625.03125.027344.0625.054688.09375.082032.117188.101562.234375.203124.355469.304687.011719.011719.03125.027344.042969.039063.273437.230468.550781.457031.828124.679687.03125.027344.0625.050781.089844.074219.109375.085937.214844.167968.320313.253906.042969.03125.082031.0625.125.09375.097656.078125.195312.152344.292969.226562.046874.035157.089843.066407.132812.101563.097656.074219.195312.144531.289062.214844.050782.035156.097657.074219.144532.109375.09375.066406.191406.136718.285156.207031.046875.03125.09375.066406.140625.101563.105469.074218.210937.148437.3125.21875.039063.03125.078125.058593.117187.085937.132813.089844.265626.179687.394532.269531.015625.007813.027344.015625.039062.027344.148438.101562.300782.199219.449219.296875.019531.011719.035156.023437.054687.039063.128907.082031.257813.167968.386719.25.039063.023437.082031.050781.125.078124.105469.066407.210938.132813.316407.199219.050781.03125.101562.066407.15625.097657.097656.058593.195312.121093.292968.179687.054688.035156.109375.066406.164063.097656.097656.058594.195312.117188.292969.175781.054687.03125.109374.0625.164062.09375.101562.058594.203125.117188.304688.175782.054687.03125.105468.058594.15625.089844.109374.0625.21875.125.332031.183593.035156.019531.070312.039063.105469.058594v125.933594c-7.015626 5.851562-15.898438 9.789062-26.441407 11.710937-.84375-2.984375-3.035156-5.425781-5.933593-6.578125-.273438-.105469-27.496094-11.101562-53.21875-35.527343-31.4375-29.851563-47.046876-65.832032-46.484376-107.066407zm125.289063 395.007813c-2.914063 0-5.28125-2.363282-5.28125-5.269532v-3.652343c0-.050781 0-.101563 0-.152344v-92.257813c0-5.523437-4.480469-10-10-10-5.523437 0-10 4.476563-10 10v82.273438l-7.6875-.101562c-1.84375-.023438-3.34375-1.550782-3.34375-3.402344v-14.980469c0-.074219 0-.152344-.003906-.226563v-52.5625c0-5.523437-4.476563-10-10-10-5.519531 0-10 4.476563-10 10v42.789063h-7.515625c-1.234375 0-2.25-.953125-2.3125-2.171875-.847656-16.84375-1.425782-50.515625 4.226562-86.785156 5.691406-36.523438 16.082032-66.046875 30.941406-88.019532 15.628907-.554687 27.996094-4.09375 37.765626-9.148437v233.667969zm0 0"/></svg>