<svg height="512pt" viewBox="0 -13 512 511" width="512pt" xmlns="http://www.w3.org/2000/svg"><path d="m501.609375 375.15625c6.707031-7.191406 10.390625-16.523438 10.390625-26.386719v-308.910156c0-21.703125-17.65625-39.359375-39.359375-39.359375h-413.4375c-.089844 0-.183594 0-.273437.003906-33.613282.085938-58.929688 15.726563-58.929688 36.449219v412.761719c0 20.777344 25.449219 36.449218 59.199219 36.449218 33.753906 0 59.210937-15.671874 59.210937-36.449218v-5.636719h299.65625c5.46875 0 10.859375-1.183594 15.796875-3.390625.175781-.070312.347657-.144531.515625-.222656 3.976563-1.847656 7.570313-4.320313 10.6875-7.359375.007813-.007813.015625-.015625.023438-.019531.101562-.101563.199218-.199219.300781-.300782.015625-.011718.03125-.027344.046875-.042968.113281-.113282.222656-.226563.332031-.339844l55.230469-56.605469c.109375-.113281.214844-.226563.324219-.335937.019531-.023438.039062-.042969.058593-.0625.074219-.082032.152344-.160157.226563-.242188zm-442.410156-354.652344c13.117187 0 23.78125 3.066406 30.65625 6.914063 5.476562 3.070312 8.550781 6.632812 8.550781 9.539062v.101563c-.164062 6.554687-15.761719 16.355468-39.207031 16.355468-23.5625 0-39.199219-9.90625-39.199219-16.460937 0-6.546875 15.636719-16.449219 39.199219-16.449219zm59.210937 403.574219v-191.675781c0-1.464844-.316406-2.859375-.882812-4.113282-1.570313-3.472656-5.0625-5.890624-9.121094-5.890624-5.519531 0-10 4.480468-10 10v201.679687c0 .050781.003906.101563.003906.152344v15.484375c0 6.550781-15.640625 16.449218-39.210937 16.449218-23.5625 0-39.199219-9.898437-39.199219-16.449218v-384.988282c10.292969 5.460938 23.894531 8.6875 39.199219 8.6875 15.3125 0 28.914062-3.226562 39.207031-8.6875v87.671876c0 1.46875.316406 2.863281.886719 4.117187 1.566406 3.472656 5.058593 5.886719 9.117187 5.886719 5.523438 0 10-4.476563 10-10v-115.449219c0-5.992187-2.117187-11.5625-5.941406-16.453125h360.171875c10.675781 0 19.359375 8.683594 19.359375 19.359375v308.910156c0 .566407-.023438 1.125-.074219 1.683594h-37.003906c-19.164063 0-34.757813 15.589844-34.757813 34.753906v38.753907c-.691406.078124-1.394531.117187-2.097656.117187zm353.109375-46.707031-31.355469 32.136718v-24.300781c0-8.136719 6.621094-14.757812 14.757813-14.757812h23.351563zm0 0"/><path d="m254.570312 80.933594c-15.539062-2.554688-27.695312-14.714844-30.25-30.25-.867187-5.273438-5.378906-9.105469-10.722656-9.105469s-9.855468 3.832031-10.722656 9.105469c-2.558594 15.539062-14.714844 27.695312-30.253906 30.253906-5.273438.867188-9.101563 5.375-9.101563 10.71875 0 5.347656 3.828125 9.855469 9.101563 10.722656 15.539062 2.558594 27.695312 14.714844 30.253906 30.257813.871094 5.273437 5.378906 9.097656 10.722656 9.097656h.003906c5.34375 0 9.851563-3.828125 10.71875-9.101563 2.554688-15.539062 14.714844-27.695312 30.25-30.253906 5.277344-.867187 9.105469-5.375 9.105469-10.722656 0-5.34375-3.828125-9.855469-9.105469-10.722656zm-40.972656 25.832031c-4.03125-5.945313-9.164062-11.074219-15.109375-15.109375 5.945313-4.03125 11.078125-9.164062 15.109375-15.109375 4.03125 5.945313 9.164063 11.078125 15.109375 15.109375-5.945312 4.03125-11.078125 9.164062-15.109375 15.109375zm0 0"/><path d="m254.570312 211.566406c-15.539062-2.554687-27.695312-14.714844-30.25-30.25-.867187-5.277344-5.378906-9.105468-10.722656-9.105468s-9.855468 3.828124-10.722656 9.105468c-2.558594 15.535156-14.714844 27.695313-30.253906 30.25-5.273438.871094-9.101563 5.378906-9.101563 10.722656 0 5.347657 3.828125 9.855469 9.101563 10.722657 15.539062 2.558593 27.695312 14.714843 30.253906 30.257812.871094 5.273438 5.378906 9.097657 10.722656 9.097657h.003906c5.339844 0 9.851563-3.828126 10.71875-9.101563 2.554688-15.539063 14.714844-27.695313 30.25-30.253906 5.277344-.867188 9.105469-5.375 9.105469-10.722657 0-5.34375-3.828125-9.855468-9.105469-10.722656zm-40.972656 25.832032c-4.03125-5.945313-9.164062-11.078126-15.109375-15.109376 5.945313-4.03125 11.078125-9.164062 15.109375-15.109374 4.03125 5.945312 9.164063 11.078124 15.109375 15.109374-5.945312 4.03125-11.078125 9.164063-15.109375 15.109376zm0 0"/><path d="m254.570312 342.199219c-15.539062-2.558594-27.695312-14.714844-30.25-30.253907-.867187-5.273437-5.378906-9.101562-10.722656-9.101562s-9.855468 3.828125-10.722656 9.101562c-2.558594 15.539063-14.714844 27.699219-30.253906 30.253907-5.273438.867187-9.101563 5.378906-9.101563 10.722656s3.828125 9.855469 9.101563 10.722656c15.539062 2.554688 27.695312 14.714844 30.253906 30.257813.871094 5.273437 5.378906 9.097656 10.722656 9.097656h.003906c5.339844-.003906 9.851563-3.828125 10.71875-9.101562 2.554688-15.539063 14.714844-27.699219 30.25-30.253907 5.277344-.867187 9.105469-5.378906 9.105469-10.722656s-3.828125-9.855469-9.105469-10.722656zm-40.972656 25.832031c-4.03125-5.945312-9.164062-11.078125-15.109375-15.109375 5.945313-4.03125 11.078125-9.164063 15.109375-15.109375 4.03125 5.945312 9.164063 11.078125 15.109375 15.109375-5.945312 4.03125-11.078125 9.164063-15.109375 15.109375zm0 0"/><path d="m327.488281 102.378906c15.539063 2.558594 27.695313 14.714844 30.253907 30.253906.867187 5.273438 5.375 9.101563 10.722656 9.101563 5.34375 0 9.851562-3.828125 10.71875-9.101563 2.558594-15.539062 14.714844-27.695312 30.253906-30.253906 5.273438-.867187 9.101562-5.375 9.101562-10.722656 0-5.34375-3.828124-9.855469-9.101562-10.722656-15.539062-2.554688-27.695312-14.714844-30.253906-30.25-.867188-5.273438-5.375-9.105469-10.722656-9.105469-5.34375 0-9.855469 3.832031-10.722657 9.105469-2.554687 15.539062-14.714843 27.695312-30.25 30.253906-5.273437.867188-9.101562 5.375-9.101562 10.722656 0 5.34375 3.828125 9.851563 9.101562 10.71875zm40.976563-25.832031c4.03125 5.945313 9.164062 11.078125 15.105468 15.109375-5.941406 4.03125-11.074218 9.164062-15.105468 15.109375-4.035156-5.945313-9.164063-11.074219-15.109375-15.109375 5.945312-4.03125 11.078125-9.164062 15.109375-15.109375zm0 0"/><path d="m409.4375 211.566406c-15.539062-2.554687-27.695312-14.714844-30.253906-30.25-.867188-5.277344-5.375-9.105468-10.71875-9.105468-5.347656 0-9.855469 3.828124-10.722656 9.105468-2.558594 15.535156-14.714844 27.695313-30.253907 30.25-5.273437.871094-9.101562 5.378906-9.101562 10.722656 0 5.347657 3.828125 9.855469 9.101562 10.722657 15.539063 2.558593 27.695313 14.714843 30.253907 30.253906.867187 5.273437 5.375 9.101563 10.722656 9.101563 5.34375 0 9.851562-3.828126 10.71875-9.101563 2.558594-15.539063 14.714844-27.695313 30.253906-30.25 5.273438-.867187 9.101562-5.378906 9.101562-10.722656 0-5.347657-3.828124-9.859375-9.101562-10.726563zm-40.972656 25.832032c-4.035156-5.945313-9.164063-11.078126-15.109375-15.109376 5.945312-4.03125 11.074219-9.164062 15.109375-15.109374 4.03125 5.945312 9.164062 11.078124 15.105468 15.109374-5.941406 4.03125-11.074218 9.164063-15.105468 15.109376zm0 0"/><path d="m409.4375 342.199219c-15.539062-2.558594-27.695312-14.714844-30.253906-30.253907-.867188-5.273437-5.375-9.101562-10.71875-9.101562-5.347656 0-9.855469 3.828125-10.722656 9.101562-2.558594 15.539063-14.714844 27.699219-30.253907 30.253907-5.273437.867187-9.101562 5.378906-9.101562 10.722656 0 5.347656 3.828125 9.855469 9.101562 10.722656 15.539063 2.558594 27.695313 14.714844 30.253907 30.253907.867187 5.273437 5.375 9.101562 10.722656 9.101562 5.34375 0 9.851562-3.828125 10.71875-9.101562 2.558594-15.539063 14.714844-27.695313 30.253906-30.253907 5.273438-.867187 9.101562-5.375 9.101562-10.71875 0-5.347656-3.828124-9.859375-9.101562-10.726562zm-40.972656 25.832031c-4.035156-5.945312-9.164063-11.078125-15.109375-15.109375 5.945312-4.03125 11.074219-9.164063 15.109375-15.109375 4.03125 5.945312 9.164062 11.078125 15.105468 15.109375-5.941406 4.03125-11.074218 9.164063-15.105468 15.109375zm0 0"/><path d="m108.40625 182.410156c-5.519531 0-10 4.492188-10 10.015625 0 5.523438 4.480469 10 10 10 5.523438 0 10-4.476562 10-10v-.027343c0-5.523438-4.476562-9.988282-10-9.988282zm0 0"/></svg>