<svg width="621" height="491" viewBox="0 0 621 491" fill="none" xmlns="http://www.w3.org/2000/svg">
<g clip-path="url(#clip0)">
<g filter="url(#filter0_dd)">
<path d="M577.815 330.973C553.544 349.013 551.452 384.448 555.623 414.418C557.021 424.449 558.777 435.139 554.542 444.335C549.361 455.583 536.509 461.342 524.227 462.911C501.841 465.767 478.298 457.24 462.932 440.704C449.651 426.412 442.602 407.131 428.922 393.222C406.013 369.945 369.789 366.531 337.288 369.452C314.292 371.514 288.711 375.375 270.143 361.642C257.079 351.975 250.759 335.374 249.232 319.191C248.503 311.375 248.644 303.177 245.12 296.178C243.011 292.018 239.722 288.574 236.233 285.477C204.372 257.206 155.213 254.332 124.957 224.362C104.521 204.118 96.0626 174.107 96.5266 145.342C96.9907 116.577 105.449 88.5756 114.736 61.3089C121.321 41.9519 129.245 21.5254 145.95 9.74901C163.578 -2.70316 188.037 -2.48573 207.844 6.18789C227.651 14.8615 243.405 30.8337 256.38 48.1339C272.598 69.7592 286.249 94.9104 309.745 108.268C325.775 117.394 344.496 119.868 362.464 123.858C392.497 130.516 421.321 141.693 449.886 153.122C477.235 164.058 504.696 175.382 529.096 191.907C546.366 203.583 558.419 219.526 574.155 232.666C584.411 241.228 596.782 246.182 606.016 256.042C617.388 268.189 625.934 286.265 617.763 302.466C610.01 317.857 590.69 321.394 577.815 330.973Z" fill="#EFCEFA"/>
<path d="M249.73 319.144C249.591 317.661 249.484 316.148 249.375 314.626C249.202 312.185 249.026 309.72 248.72 307.315C248.221 303.387 247.365 299.525 245.567 295.954L245.566 295.952C243.415 291.708 240.07 288.214 236.565 285.103L236.233 285.477L236.565 285.103C221.124 271.402 201.648 263.644 182.31 255.942C181.599 255.659 180.889 255.376 180.179 255.092C160.112 247.089 140.354 238.91 125.308 224.007C104.999 203.888 96.564 174.026 97.0266 145.35C97.4892 116.67 105.923 88.7344 115.209 61.4701L115.209 61.4699C121.8 42.0963 129.683 21.828 146.238 10.1577L146.239 10.1574C163.686 -2.16768 187.951 -1.97768 207.643 6.6459C227.336 15.2696 243.027 31.1636 255.98 48.4339C259.504 53.1328 262.907 57.9985 266.322 62.8813C266.83 63.6078 267.338 64.3347 267.847 65.0615C271.775 70.6694 275.743 76.2681 279.94 81.6102C288.336 92.2939 297.669 101.978 309.498 108.702C322.587 116.154 337.47 119.198 352.193 122.208C355.597 122.905 358.993 123.599 362.356 124.346L362.464 123.858L362.356 124.346C392.345 130.994 421.134 142.156 449.7 153.587L449.886 153.122L449.7 153.587C477.053 164.524 504.466 175.831 528.816 192.321L528.816 192.321C537.41 198.132 544.713 205.009 551.848 212.092C553.184 213.418 554.514 214.752 555.846 216.087C561.62 221.877 567.424 227.696 573.835 233.05C578.148 236.65 582.834 239.618 587.475 242.557C588.386 243.133 589.295 243.709 590.199 244.288C595.723 247.826 601.079 251.502 605.651 256.384C616.979 268.484 625.341 286.331 617.317 302.241L617.763 302.466L617.317 302.241C613.511 309.795 606.857 314.466 599.472 318.459C597.171 319.703 594.818 320.872 592.463 322.042C591.029 322.754 589.595 323.466 588.17 324.197C584.42 326.12 580.769 328.152 577.516 330.572C565.252 339.687 558.615 353.183 555.563 368.122C552.513 383.057 553.038 399.47 555.128 414.487L555.623 414.418L555.128 414.487C555.187 414.912 555.247 415.338 555.307 415.764C556.667 425.451 558.074 435.471 554.088 444.126C549.013 455.143 536.375 460.855 524.163 462.415C501.938 465.25 478.555 456.781 463.298 440.363C456.911 433.49 451.97 425.452 447.001 417.368C446.835 417.098 446.669 416.828 446.503 416.558C441.374 408.218 436.164 399.872 429.278 392.871L428.922 393.222L429.278 392.871C406.202 369.425 369.773 366.031 337.243 368.954C335.306 369.128 333.352 369.314 331.387 369.501C321.668 370.428 311.682 371.38 302.076 370.971C290.538 370.479 279.613 368.025 270.44 361.24C257.535 351.69 251.25 335.251 249.73 319.144ZM249.73 319.144L249.232 319.191M249.73 319.144C249.73 319.144 249.73 319.144 249.73 319.144L249.232 319.191M249.232 319.191C249.091 317.683 248.983 316.161 248.875 314.636C248.421 308.257 247.964 301.827 245.12 296.178L249.232 319.191Z" stroke="black" stroke-opacity="0.56"/>
</g>
<path d="M314.157 106.563C314.825 106.563 315.367 106.021 315.367 105.353C315.367 104.684 314.825 104.142 314.157 104.142C313.488 104.142 312.947 104.684 312.947 105.353C312.947 106.021 313.488 106.563 314.157 106.563Z" fill="#F8F9FA"/>
<path d="M317.387 106.563C318.056 106.563 318.597 106.021 318.597 105.353C318.597 104.684 318.056 104.142 317.387 104.142C316.719 104.142 316.177 104.684 316.177 105.353C316.177 106.021 316.719 106.563 317.387 106.563Z" fill="#F8F9FA"/>
<path d="M320.624 106.563C321.292 106.563 321.834 106.021 321.834 105.353C321.834 104.684 321.292 104.142 320.624 104.142C319.956 104.142 319.414 104.684 319.414 105.353C319.414 106.021 319.956 106.563 320.624 106.563Z" fill="#F8F9FA"/>
<path d="M4.18226 331.831C4.18226 331.831 -24.9349 377.338 70.5168 378.12C70.5168 378.12 71.9207 338.524 40.7182 322.211C34.651 319.025 27.6263 318.176 20.975 319.824C14.3237 321.472 8.50766 325.504 4.62867 331.155L4.18226 331.831Z" fill="#E3E9C2"/>
<path d="M4.39959 331.067C4.39959 331.067 53.2885 340.704 70.5168 378.12" stroke="#535461" stroke-miterlimit="10"/>
<path d="M74.7813 371.996C74.7813 371.996 43.3909 331.414 46.2574 291.407C47.4322 274.618 43.4907 257.846 34.3861 243.684C30.0538 236.979 25.1167 230.684 19.6366 224.88" stroke="#8D9178" stroke-width="2" stroke-miterlimit="10"/>
<path d="M21.2813 199.664C23.4723 205.282 19.6601 225.549 19.6601 225.549C19.6601 225.549 3.13669 213.215 0.945708 207.597C0.368006 206.25 0.067049 204.801 0.0607568 203.336C0.0544647 201.87 0.342964 200.418 0.909081 199.067C1.4752 197.715 2.30736 196.491 3.35603 195.468C4.40469 194.445 5.64842 193.643 7.01318 193.111C8.37794 192.578 9.83582 192.326 11.3 192.369C12.7643 192.412 14.2049 192.749 15.5362 193.361C16.8674 193.972 18.0621 194.845 19.0491 195.928C20.0361 197.011 20.7953 198.281 21.2813 199.664Z" fill="#E3E9C2"/>
<path d="M50.2399 224.216C49.0299 230.127 34.8149 245.065 34.8149 245.065C34.8149 245.065 27.6369 225.732 28.847 219.796C29.104 218.362 29.6455 216.993 30.4394 215.771C31.2334 214.549 32.2638 213.498 33.4699 212.68C34.676 211.863 36.0335 211.295 37.4624 211.01C38.8913 210.725 40.3627 210.73 41.79 211.022C43.2172 211.315 44.5714 211.891 45.7728 212.716C46.9742 213.54 47.9985 214.597 48.7854 215.824C49.5723 217.05 50.1059 218.422 50.3546 219.858C50.6034 221.295 50.5624 222.766 50.234 224.186L50.2399 224.216Z" fill="#8D9178"/>
<path d="M70.2583 277.691C66.2288 282.181 46.4277 287.898 46.4277 287.898C46.4277 287.898 49.9873 267.584 54.011 263.094C55.9576 260.983 58.6567 259.725 61.5241 259.59C64.3915 259.455 67.1967 260.455 69.3324 262.374C71.4682 264.293 72.7628 266.976 72.9361 269.843C73.1093 272.709 72.1474 275.529 70.2583 277.691Z" fill="#F8FCDA"/>
<path d="M76.2967 321.571C73.0837 326.677 54.5279 335.674 54.5279 335.674C54.5279 335.674 54.6043 315.054 57.8173 309.947C58.5658 308.701 59.5552 307.617 60.7277 306.759C61.9001 305.901 63.232 305.285 64.6452 304.948C66.0585 304.611 67.5248 304.56 68.9581 304.797C70.3915 305.034 71.7631 305.555 72.9927 306.33C74.2222 307.104 75.285 308.116 76.1188 309.306C76.9525 310.496 77.5405 311.841 77.8482 313.261C78.1559 314.682 78.1772 316.149 77.9108 317.578C77.6444 319.007 77.0956 320.368 76.2967 321.582V321.571Z" fill="#E3E9C2"/>
<path d="M13.8684 254.491C19.4252 256.842 39.7784 253.562 39.7784 253.562C39.7784 253.562 27.9248 236.685 22.368 234.335C21.0451 233.776 19.6252 233.484 18.1894 233.475C16.7536 233.466 15.3301 233.739 14 234.28C12.6699 234.821 11.4594 235.619 10.4375 236.628C9.41566 237.637 8.60247 238.838 8.04437 240.161C7.48628 241.485 7.19422 242.905 7.18487 244.342C7.17552 245.778 7.44906 247.202 7.98987 248.533C8.53068 249.863 9.32817 251.074 10.3368 252.097C11.3454 253.119 12.5455 253.933 13.8684 254.491Z" fill="#F8FCDA"/>
<path d="M21.5985 305.716C27.6017 306.303 46.04 297.072 46.04 297.072C46.04 297.072 29.6693 284.543 23.6662 283.967C22.2186 283.791 20.7504 283.906 19.3482 284.307C17.946 284.707 16.6381 285.384 15.5018 286.299C14.3655 287.213 13.4238 288.346 12.7322 289.63C12.0405 290.914 11.6131 292.324 11.475 293.777C11.3369 295.229 11.4909 296.694 11.9281 298.086C12.3652 299.478 13.0765 300.768 14.0201 301.88C14.9637 302.992 16.1204 303.904 17.422 304.562C18.7236 305.22 20.1437 305.61 21.5985 305.71V305.716Z" fill="#F8FCDA"/>
<path d="M35.9251 354.467C41.7462 356.048 61.4768 350.077 61.4768 350.077C61.4768 350.077 47.4557 334.957 41.6346 333.382C40.2411 332.976 38.7806 332.852 37.3385 333.017C35.8965 333.182 34.5018 333.633 33.236 334.343C31.9702 335.054 30.8587 336.01 29.9664 337.155C29.0742 338.3 28.4192 339.612 28.0397 341.014C27.6602 342.415 27.5637 343.878 27.7561 345.318C27.9484 346.757 28.4256 348.143 29.1598 349.396C29.894 350.649 30.8705 351.742 32.0321 352.613C33.1937 353.484 34.5172 354.114 35.9251 354.467Z" fill="#8D9178"/>
<path opacity="0.25" d="M21.2813 199.664C23.4723 205.282 19.6601 225.549 19.6601 225.549C19.6601 225.549 3.13669 213.215 0.945708 207.597C0.368006 206.25 0.067049 204.801 0.0607568 203.336C0.0544647 201.87 0.342964 200.418 0.909081 199.067C1.4752 197.715 2.30736 196.491 3.35603 195.468C4.40469 194.445 5.64842 193.643 7.01318 193.111C8.37794 192.578 9.83582 192.326 11.3 192.369C12.7643 192.412 14.2049 192.749 15.5362 193.361C16.8674 193.972 18.0621 194.845 19.0491 195.928C20.0361 197.011 20.7953 198.281 21.2813 199.664Z" fill="black"/>
<path opacity="0.25" d="M50.2399 224.216C49.0299 230.127 34.8149 245.065 34.8149 245.065C34.8149 245.065 27.6369 225.732 28.847 219.796C29.104 218.362 29.6455 216.993 30.4394 215.771C31.2334 214.549 32.2638 213.498 33.4699 212.68C34.676 211.863 36.0335 211.295 37.4624 211.01C38.8913 210.725 40.3627 210.73 41.79 211.022C43.2172 211.315 44.5714 211.891 45.7728 212.716C46.9742 213.54 47.9985 214.597 48.7854 215.824C49.5723 217.05 50.1059 218.422 50.3546 219.858C50.6034 221.295 50.5624 222.766 50.234 224.186L50.2399 224.216Z" fill="black"/>
<path opacity="0.25" d="M70.2583 277.691C66.2288 282.181 46.4277 287.898 46.4277 287.898C46.4277 287.898 49.9873 267.584 54.011 263.094C55.9576 260.983 58.6567 259.725 61.5241 259.59C64.3915 259.455 67.1967 260.455 69.3324 262.374C71.4682 264.293 72.7628 266.976 72.9361 269.843C73.1093 272.709 72.1474 275.529 70.2583 277.691Z" fill="black"/>
<path opacity="0.25" d="M76.2967 321.571C73.0837 326.677 54.5279 335.674 54.5279 335.674C54.5279 335.674 54.6043 315.054 57.8173 309.947C58.5658 308.701 59.5552 307.617 60.7277 306.759C61.9001 305.901 63.232 305.285 64.6452 304.948C66.0585 304.611 67.5248 304.56 68.9581 304.797C70.3915 305.034 71.7631 305.555 72.9927 306.33C74.2222 307.104 75.285 308.116 76.1188 309.306C76.9525 310.496 77.5405 311.841 77.8482 313.261C78.1559 314.682 78.1772 316.149 77.9108 317.578C77.6444 319.007 77.0956 320.368 76.2967 321.582V321.571Z" fill="black"/>
<path opacity="0.25" d="M13.8684 254.491C19.4252 256.842 39.7784 253.562 39.7784 253.562C39.7784 253.562 27.9248 236.685 22.368 234.335C21.0451 233.776 19.6252 233.484 18.1894 233.475C16.7536 233.466 15.3301 233.739 14 234.28C12.6699 234.821 11.4594 235.619 10.4375 236.628C9.41566 237.637 8.60247 238.838 8.04437 240.161C7.48628 241.485 7.19422 242.905 7.18487 244.342C7.17552 245.778 7.44906 247.202 7.98987 248.533C8.53068 249.863 9.32817 251.074 10.3368 252.097C11.3454 253.119 12.5455 253.933 13.8684 254.491Z" fill="black"/>
<path opacity="0.25" d="M21.5985 305.716C27.6017 306.303 46.04 297.072 46.04 297.072C46.04 297.072 29.6693 284.543 23.6662 283.967C22.2186 283.791 20.7504 283.906 19.3482 284.307C17.946 284.707 16.6381 285.384 15.5018 286.299C14.3655 287.213 13.4238 288.346 12.7322 289.63C12.0405 290.914 11.6131 292.324 11.475 293.777C11.3369 295.229 11.4909 296.694 11.9281 298.086C12.3652 299.478 13.0765 300.768 14.0201 301.88C14.9637 302.992 16.1204 303.904 17.422 304.562C18.7236 305.22 20.1437 305.61 21.5985 305.71V305.716Z" fill="black"/>
<path opacity="0.25" d="M35.9251 354.467C41.7462 356.048 61.4768 350.077 61.4768 350.077C61.4768 350.077 47.4557 334.957 41.6346 333.382C40.2411 332.976 38.7806 332.852 37.3385 333.017C35.8965 333.182 34.5018 333.633 33.236 334.343C31.9702 335.054 30.8587 336.01 29.9664 337.155C29.0742 338.3 28.4192 339.612 28.0397 341.014C27.6602 342.415 27.5637 343.878 27.7561 345.318C27.9484 346.757 28.4256 348.143 29.1598 349.396C29.894 350.649 30.8705 351.742 32.0321 352.613C33.1937 353.484 34.5172 354.114 35.9251 354.467Z" fill="black"/>
<path opacity="0.1" d="M272.258 294.081C261.097 293.834 249.108 294.392 240.239 298.782C223.792 306.903 226.006 323.375 215.28 334.804C206.223 344.453 188.912 349.466 172.124 352.663C144.775 357.875 116.093 359.826 88.9316 365.426C72.9192 368.729 57.0243 373.53 46.0518 381.745C35.0792 389.96 30.1569 402.213 37.5757 411.933C44.4364 420.918 59.5501 425.725 73.3128 430.379C87.0755 435.033 101.655 441.138 105.484 450.84C107.617 456.241 106.031 462.064 108.521 467.394C113.432 477.913 131.823 482.879 148.347 485.564C161.545 487.709 174.962 489.29 188.483 490.265C199.286 491.059 210.334 491.476 220.937 489.931C230.118 488.591 238.618 485.817 247.423 483.684C303.366 470.056 367.709 481.845 424.769 470.303C435.154 468.217 445.369 465.279 453.24 460.472C459.114 456.899 463.461 452.433 467.12 447.802C476.436 436.049 481.541 422.869 481.934 409.652C482.169 401.731 480.759 393.727 482.927 385.923C485.2 377.802 491.268 370.333 494.499 362.347C500.373 347.832 496.261 331.79 483.473 319.232C478.909 314.603 473.312 311.123 467.144 309.077C461.975 307.42 456.195 306.785 450.503 306.139C434.643 304.417 418.578 302.689 402.577 303.659C391.193 304.353 380.051 306.403 368.632 306.774C352.607 307.297 340.055 303.6 325.529 300.127C308.817 296.167 290.015 294.468 272.258 294.081Z" fill="#6C63FF"/>
<path d="M70.5696 173.948V331.126L279.612 290.502L275.618 169.952L70.5696 173.948Z" fill="#E3E9C2"/>
<path d="M463.519 359.268V411.216L242.494 475.821L240.239 474.652L65.4123 383.908V169.118L281.773 162.125L283.107 281.34L274.449 284.008L271.118 172.503L80.7198 179.108L79.3923 340.616L245.155 413.214L245.284 413.184L463.519 359.268Z" fill="#8D9178"/>
<path opacity="0.1" d="M463.519 359.268V411.216L242.494 475.821L240.239 474.652L245.284 413.184L463.519 359.268Z" fill="black"/>
<path d="M197.059 283.838C197.059 283.838 90.0477 294.521 79.6566 309.994C69.2656 325.467 79.5685 344.447 79.5685 344.447L245.003 416.375L469.352 358.433C469.352 358.433 463.361 317.804 444.723 313.144C426.085 308.484 277.609 276.516 277.609 276.516C277.609 276.516 217.695 272.849 197.059 283.838Z" fill="#EBECF0"/>
<path d="M79.5568 310.141L248.321 368.417C248.321 368.417 428.329 313.814 453.827 318.955C453.827 318.955 327.907 273.866 277.609 275.828C237.525 277.391 195.556 283.973 195.556 283.973C195.556 283.973 84.2207 295.162 79.5568 310.141Z" fill="#F8F9FA"/>
<path d="M339.215 347.632L339.256 347.574V347.538L339.285 347.48V347.439V347.38V347.339V347.274V347.233V347.156V347.121C339.285 347.086 339.285 347.051 339.285 347.015C339.285 346.974 339.285 346.933 339.285 346.892C339.285 346.851 339.285 346.892 339.285 346.851C339.285 346.81 339.285 346.792 339.285 346.763V346.71V346.622V346.563V346.475V346.416V346.322V346.263V346.163V346.111L339.238 345.964L339.18 345.799V345.746L339.133 345.629V345.564L339.086 345.452L339.056 345.382L339.009 345.27L338.974 345.194L338.921 345.082L338.886 345.012L338.821 344.888L338.786 344.824L338.698 344.653L338.592 344.453L338.557 344.389L338.481 344.248L338.439 344.171L338.363 344.042L338.316 343.96L338.24 343.83L338.111 343.637L338.028 343.507L337.975 343.425L337.887 343.284L337.84 343.208L337.723 343.019V342.984L337.576 342.761L337.529 342.696L337.423 342.538L337.365 342.455L337.265 342.314L337.206 342.226L337.106 342.085L337.041 341.991L336.936 341.874L336.871 341.785L336.76 341.633L336.701 341.556L336.554 341.356V341.327L336.384 341.092L336.325 341.01L336.213 340.857L336.137 340.757L336.031 340.616L335.955 340.516L335.849 340.375L335.773 340.281L335.661 340.134L335.585 340.04L335.467 339.887L335.397 339.799L335.256 339.623L335.209 339.564C334.68 338.894 334.134 338.224 333.588 337.578C332.047 335.746 330.16 334.235 328.035 333.133C325.911 332.031 323.59 331.359 321.205 331.155C320.718 331.114 320.207 331.061 319.69 330.996H319.472L319.091 330.943H318.909L318.321 330.861L317.763 330.773L317.569 330.738L317.176 330.667L316.941 330.62L316.582 330.55L316.33 330.497L315.989 330.42L315.731 330.362L315.39 330.279L315.126 330.215L314.791 330.127L314.527 330.056L314.192 329.962C312.43 327.341 309.751 325.008 307.143 324.556C306.424 324.444 305.691 324.482 304.987 324.667L304.864 324.532L304.688 324.332L304.453 324.033L304.3 323.833L304.053 323.486L303.93 323.316C303.809 323.139 303.693 322.959 303.583 322.775C303.237 322.621 302.874 322.505 302.503 322.428C307.7 321.641 312.826 320.432 317.828 318.814C318.07 318.723 318.301 318.602 318.515 318.456L318.621 318.421C322.973 316.834 328.319 301.379 324.559 299.216C320.8 297.054 315.061 279.237 311.695 270.111C308.33 260.984 298.632 260.015 298.632 260.015C298.632 260.015 284.581 249.126 278.249 250.313C271.917 251.5 270.924 241.998 270.331 241.604C270.262 241.547 270.204 241.477 270.161 241.398C268.633 239.007 256.492 235.816 249.943 234.241C243.54 229.598 235.904 225.996 229.73 224.509C227.668 223.951 225.504 223.878 223.409 224.296C221.314 224.714 219.344 225.612 217.653 226.919C204.684 227.577 202.616 237.379 202.616 237.379C202.572 238.716 202.804 240.049 203.297 241.292C202.597 241.302 201.896 241.265 201.2 241.181C202.704 238.695 202.751 235.498 203.873 232.766C206.088 227.359 212.196 224.568 217.971 223.839C221.336 223.416 225.019 223.416 227.674 221.307C229.041 220.214 229.974 218.67 230.306 216.952C230.414 216.581 230.38 216.183 230.212 215.836C230.047 215.61 229.827 215.432 229.572 215.319C226.094 213.462 221.906 213.944 217.959 213.855C211.544 213.714 205.295 211.957 199.092 210.329C196.466 209.642 193.629 208.978 191.091 209.953C188.695 210.87 187.062 213.056 185.141 214.754C177.27 221.7 164.2 220.696 157.199 228.523C155.577 230.339 154.362 232.801 154.955 235.163C155.196 236.127 155.73 237.014 155.901 237.996C156.241 239.935 155.137 241.792 154.203 243.526C153.269 245.259 152.441 247.363 153.322 249.126C154.655 251.817 158.726 251.617 160.841 253.751C161.821 254.744 162.297 256.166 163.319 257.112C164.958 258.622 167.478 258.505 169.698 258.287C170.574 258.205 171.884 257.964 172.365 257.194C174.083 258.81 176.152 260.005 178.409 260.685C180.667 261.365 183.052 261.512 185.376 261.113C187.699 260.714 189.899 259.781 191.801 258.387C193.703 256.993 195.256 255.177 196.337 253.081C201.122 252.757 205.877 254.044 209.847 256.736C210.445 258.5 211.543 260.051 213.007 261.202C214.393 262.289 216.044 263.623 217.706 265.051C213.495 266.162 209.753 266.873 209.753 266.873C209.753 266.873 193.13 272.22 193.13 275.781C193.189 276.426 193.389 277.05 193.717 277.609C193.296 278.494 193.058 279.456 193.018 280.435C188.43 279.66 184.759 278.49 182.862 276.769C182.862 276.769 182.322 276.622 181.487 276.457C180.371 275.029 177.094 271.062 175.144 271.221C173.845 271.327 173.381 274.347 173.217 277.051C173.046 277.198 172.896 277.368 172.771 277.556C170.791 280.524 174.357 286.465 176.73 287.458C179.103 288.451 192.166 288.045 201.071 294.586C205.019 297.483 211.803 298.041 218.106 297.771C211.768 302.249 202.892 309.13 201.659 313.396C200.995 315.659 200.214 318.468 200.261 321.353C196.384 326.483 190.516 337.313 205.024 342.508C216.984 346.78 249.408 346.234 272.51 345.188C283.26 347.086 292.135 348.996 295.859 350.823C295.859 350.823 304.764 351.999 308.33 354.191C311.895 356.383 318.421 355.777 318.421 355.777C318.421 355.777 331.085 357.957 333.858 360.725C336.63 363.493 341.376 355.971 335.444 352.41C333.129 351.023 329.681 348.737 326.339 346.234C330.633 346.739 334.422 347.292 336.83 347.856L337.071 347.909H337.147H337.3H337.388H337.517H337.599H337.723H338.31H338.463H338.51H338.604H338.657H338.733H338.78H338.851H338.898L338.962 347.879H339.003L339.062 347.838H339.091L339.168 347.773L339.215 347.632ZM284.546 328.652C284.546 328.652 282.878 328.27 280.387 327.682L275.441 325.684C275.441 325.684 283.882 323.028 291.7 319.649C293.938 320.63 295.906 321.412 296.4 322.123C296.612 322.358 296.902 322.511 297.216 322.552C294.279 323.281 290.508 325.155 286.085 329.48C285.548 329.25 285.033 328.973 284.546 328.652ZM224.784 280.935L229.666 278.667C230.729 279.572 231.868 280.43 232.984 281.264C230.306 281.423 226.705 281.599 222.635 281.711C223.88 281.293 224.784 280.935 224.784 280.935Z" fill="url(#paint0_linear)"/>
<path d="M183.191 277.15C183.191 277.15 178.926 271.356 176.606 271.533C174.286 271.709 174.668 281.417 174.668 281.417L183.191 277.15Z" fill="#FFD5D8"/>
<path d="M238.018 281.029C238.018 281.029 192.683 284.713 184.16 276.957C184.16 276.957 176.219 274.823 174.28 277.732C172.342 280.641 175.831 286.453 178.157 287.423C180.483 288.392 193.271 288.01 201.988 294.398C210.704 300.786 233.566 295.573 233.566 295.573L243.058 291.889L238.018 281.029Z" fill="#8D9178"/>
<path opacity="0.05" d="M238.018 281.029C238.018 281.029 192.683 284.713 184.16 276.957C184.16 276.957 176.219 274.823 174.28 277.732C172.342 280.641 175.831 286.453 178.157 287.423C180.483 288.392 193.271 288.01 201.988 294.398C210.704 300.786 233.566 295.573 233.566 295.573L243.058 291.889L238.018 281.029Z" fill="black"/>
<path d="M302.92 302.737C302.92 302.737 293.233 295.761 273.28 304.499C253.326 313.238 203.538 317.874 203.538 317.874C203.538 317.874 186.88 334.54 205.888 341.327C224.896 348.114 296.552 342.502 296.552 342.502C296.552 342.502 325.805 344.442 334.909 346.575C340.419 347.868 336.084 341.627 331.767 336.503C330.259 334.707 328.412 333.228 326.332 332.149C324.251 331.07 321.978 330.412 319.643 330.215C313.922 329.727 305.986 327.929 302.356 321.958C302.356 321.958 295.383 318.468 284.922 328.934L274.83 324.832C274.83 324.832 302.532 316.111 303.501 310.294C304.47 304.476 302.92 302.737 302.92 302.737Z" fill="#FFD5D8"/>
<path opacity="0.05" d="M302.92 302.737C302.92 302.737 293.234 295.761 273.28 304.499C253.326 313.238 203.538 317.874 203.538 317.874C203.538 317.874 186.88 334.54 205.888 341.327C224.896 348.114 296.552 342.502 296.552 342.502C296.552 342.502 325.805 344.442 334.909 346.575C339.738 347.703 336.994 343.049 333.359 338.454C331.545 336.145 329.294 334.218 326.733 332.784C324.172 331.35 321.354 330.437 318.439 330.097C312.858 329.463 305.739 327.517 302.362 321.958C302.362 321.958 295.389 318.468 284.928 328.934L274.83 324.832C274.83 324.832 302.532 316.111 303.501 310.294C304.47 304.476 302.92 302.737 302.92 302.737Z" fill="black"/>
<path d="M303.113 275.217C303.113 275.217 290.907 255.825 262.043 272.696L225.037 293.264C225.037 293.264 204.478 306.251 202.563 312.838C200.648 319.426 197.717 330.667 217.871 334.934C238.024 339.2 284.904 344.624 294.784 349.472C294.784 349.472 303.501 350.647 306.99 352.769C310.479 354.89 316.87 354.32 316.87 354.32C316.87 354.32 329.27 356.453 331.984 359.168C334.698 361.883 339.344 354.514 333.535 351.029C327.725 347.544 314.55 338.236 314.738 334.575C314.926 330.914 310.28 324.444 305.804 323.657C301.328 322.869 295.536 329.468 295.536 329.468C295.536 329.468 288.176 330.644 283.718 327.706C283.718 327.706 260.856 322.47 258.53 320.924C256.204 319.379 240.321 313.367 240.321 313.367C240.321 313.367 277.914 312.979 288.946 302.901C288.946 302.901 293.21 299.798 296.693 300.768C296.723 300.797 313.963 294.21 303.113 275.217Z" fill="#FFD5D8"/>
<path d="M193.265 238.777C193.265 238.777 204.308 246.528 212.831 238.777C221.354 231.026 216.52 262.618 216.52 262.618C216.52 262.618 204.701 246.916 187.074 257.194L193.265 238.777Z" fill="#FFD5D8"/>
<path opacity="0.05" d="M193.265 238.777C193.265 238.777 204.308 246.528 212.831 238.777C221.354 231.026 216.52 262.618 216.52 262.618C216.52 262.618 204.701 246.916 187.074 257.194L193.265 238.777Z" fill="black"/>
<path d="M145.997 302.258C145.997 302.258 157.622 292.373 164.206 292.179C166.168 292.121 168.436 290.123 170.668 287.349C173.487 283.845 177.206 281.173 181.427 279.621C185.647 278.068 190.21 277.692 194.628 278.534C198.375 279.228 202.986 279.21 208.584 277.823C228.926 272.781 218.852 260.194 218.852 260.194L212.461 254.77C212.461 254.77 203.744 248.764 200.449 249.152C197.153 249.54 188.63 258.261 187.661 257.291C186.692 256.321 174.873 247.601 172.935 245.274C170.997 242.947 155.489 235.389 159.366 233.256C163.243 231.123 182.803 223.178 178.926 221.627C175.05 220.076 154.127 217.748 145.991 227.439C137.856 237.129 141.921 296.634 145.997 302.258Z" fill="#F8F9FA"/>
<path opacity="0.05" d="M145.997 305.258C145.997 305.258 157.622 295.373 164.206 295.179C166.168 295.121 168.436 293.123 170.668 290.349C173.487 286.845 177.206 284.173 181.427 282.621C185.647 281.068 190.21 280.692 194.628 281.534C198.375 282.228 202.986 282.21 208.584 280.823C228.926 275.781 218.852 263.194 218.852 263.194L212.461 257.77C212.461 257.77 203.744 251.764 200.449 252.152C197.153 252.54 188.63 261.261 187.661 260.291C186.692 259.321 174.873 250.601 172.935 248.274C170.997 245.947 155.489 238.389 159.366 236.256C163.243 234.123 182.803 226.178 178.926 224.627C175.05 223.076 154.127 220.748 145.991 230.439C137.856 240.129 141.921 299.634 145.997 305.258Z" fill="black"/>
<path d="M146.772 303.9C146.772 303.9 158.397 294.016 164.982 293.822C166.944 293.763 169.211 291.765 171.443 288.992C174.26 285.491 177.973 282.822 182.188 281.268C186.403 279.715 190.96 279.335 195.374 280.171C199.121 280.864 203.732 280.847 209.33 279.46C229.672 274.418 219.598 261.831 219.598 261.831L213.207 256.407C213.207 256.407 204.49 250.401 201.195 250.789C197.899 251.177 189.376 259.897 188.407 258.928C187.438 257.958 175.619 249.237 173.681 246.91C171.743 244.583 156.265 237.032 160.13 234.922C163.995 232.813 183.573 224.844 179.696 223.293C175.819 221.742 154.896 219.415 146.761 229.105C138.625 238.795 142.702 298.276 146.772 303.9Z" fill="#F8F9FA"/>
<path d="M203.532 238.389C203.532 238.389 206.634 223.657 229.301 229.475C251.969 235.293 263.206 247.886 263.206 247.886L242.647 257.382L217.46 248.855C217.46 248.855 203.344 249.026 203.532 238.389Z" fill="#FFD5D8"/>
<path d="M244.997 234.705C244.997 234.705 266.795 239.406 268.851 242.644C268.894 242.721 268.952 242.789 269.021 242.844C269.608 243.232 270.572 252.534 276.769 251.371C282.966 250.207 296.74 260.867 296.74 260.867C296.74 260.867 306.233 261.836 309.528 270.751C312.823 279.666 318.439 297.113 322.122 299.24C325.805 301.367 320.571 316.487 316.312 318.045C312.054 319.602 296.746 323.281 295.389 321.341C294.032 319.402 282.214 317.269 282.989 311.069C283.765 304.87 288.411 299.052 284.752 295.367C281.092 291.683 278.748 281.993 273.321 280.053C267.893 278.114 258.207 277.532 252.398 281.411C246.588 285.289 239.569 285.46 239.569 285.46C239.569 285.46 227.557 278.484 225.618 273.636C224.314 270.369 217.818 264.904 213.718 261.69C212.643 260.846 211.766 259.778 211.146 258.56C210.526 257.342 210.179 256.004 210.129 254.638C209.959 249.854 209.806 242.803 210.311 241.663C211.086 239.9 221.742 229.451 221.742 229.451L244.997 234.705Z" fill="#F9FBB2"/>
<path d="M245.772 234.335C245.772 234.335 267.57 239.036 269.626 242.274C269.67 242.351 269.728 242.418 269.796 242.474C270.384 242.861 271.347 252.164 277.544 251C283.741 249.837 297.516 260.497 297.516 260.497C297.516 260.497 307.008 261.466 310.303 270.381C313.599 279.295 319.214 296.743 322.897 298.87C326.58 300.997 321.346 316.117 317.088 317.674C312.829 319.232 297.522 322.91 296.165 320.971C294.808 319.032 282.989 316.899 283.765 310.699C284.54 304.499 289.186 298.682 285.527 294.997C281.867 291.313 279.524 281.622 274.096 279.683C268.669 277.744 258.983 277.162 253.173 281.041C247.364 284.919 239.71 285.595 239.71 285.595C239.71 285.595 228.379 278.132 226.441 273.29C225.137 270.022 218.64 264.557 214.54 261.343C213.466 260.499 212.588 259.431 211.968 258.213C211.348 256.995 211.001 255.657 210.951 254.291C210.781 249.508 210.628 242.456 211.133 241.316C211.909 239.553 222.564 229.105 222.564 229.105L245.772 234.335Z" fill="#FF7C5E"/>
<path d="M195.591 276.375C195.397 276.569 192.102 281.417 195.979 284.126C197.051 284.913 198.29 285.442 199.6 285.673C200.91 285.905 202.255 285.832 203.532 285.46L195.591 276.375Z" fill="#FFD5D8"/>
<path opacity="0.1" d="M214.17 234.123C214.17 234.123 219.404 223.657 230.617 226.372C241.831 229.087 258.125 238.971 262.002 248.855C265.879 258.74 247.317 270.769 247.317 270.769L225.231 281.041C225.231 281.041 218.452 283.756 216.514 282.804C214.575 281.852 205.277 290.161 205.277 290.161C205.277 290.161 194.815 280.083 194.815 276.592C194.815 273.102 211.092 267.83 211.092 267.83C211.092 267.83 230.476 264.146 230.271 260.467C230.271 260.467 233.566 256.589 231.821 255.425C230.077 254.262 211.38 248.738 211.38 248.738C211.38 248.738 210.705 236.45 214.17 234.123Z" fill="black"/>
<path d="M213.583 233.541C213.583 233.541 218.816 223.076 230.03 225.79C241.243 228.505 257.538 238.39 261.414 248.274C265.291 258.158 246.735 270.181 246.735 270.181L224.649 280.453C224.649 280.453 217.871 283.168 215.932 282.216C213.994 281.264 204.695 289.573 204.695 289.573C204.695 289.573 194.234 279.495 194.234 276.005C194.234 272.514 210.511 267.243 210.511 267.243C210.511 267.243 229.895 263.558 229.689 259.88C229.689 259.88 232.984 256.001 231.24 254.838C229.495 253.674 210.799 248.15 210.799 248.15C210.799 248.15 210.123 235.869 213.583 233.541Z" fill="#FF7C5E"/>
<path opacity="0.1" d="M188.812 255.249C191.955 253.334 195.493 252.162 199.156 251.823C200.219 249.772 197.429 247.539 197.429 245.071C197.429 243.002 196.642 242.215 195.879 240.417C193.106 239.412 195.009 236.832 195.009 236.832L188.812 255.249Z" fill="black"/>
<path d="M184.16 261.842C192.4 261.842 199.08 255.16 199.08 246.916C199.08 238.673 192.4 231.99 184.16 231.99C175.92 231.99 169.24 238.673 169.24 246.916C169.24 255.16 175.92 261.842 184.16 261.842Z" fill="#FFD5D8"/>
<path d="M172.976 253.039C176.307 250.466 180.642 249.602 184.836 249.226C187.455 248.991 190.122 248.908 192.636 248.109C194.082 247.605 195.485 246.984 196.83 246.252C198.628 245.335 200.484 244.372 201.711 242.767C203.626 240.264 203.568 236.797 204.766 233.876C206.933 228.588 212.913 225.849 218.587 225.138C221.883 224.721 225.483 224.721 228.091 222.658C229.43 221.59 230.344 220.079 230.67 218.398C230.775 218.034 230.741 217.645 230.576 217.305C230.414 217.084 230.198 216.91 229.948 216.799C226.541 214.984 222.441 215.454 218.581 215.366C212.302 215.23 206.182 213.503 200.108 211.91C197.535 211.234 194.757 210.588 192.278 211.54C189.928 212.439 188.337 214.578 186.451 216.241C178.744 223.046 165.951 222.059 159.096 229.722C157.51 231.485 156.318 233.912 156.899 236.221C157.14 237.167 157.657 238.031 157.827 238.995C158.162 240.893 157.081 242.715 156.165 244.407C155.249 246.099 154.45 248.168 155.301 249.89C156.611 252.522 160.588 252.328 162.661 254.415C163.625 255.384 164.083 256.765 165.087 257.705C166.697 259.186 169.158 259.069 171.331 258.881C172.506 258.769 174.427 258.381 174.092 256.806C173.81 255.396 171.948 254.791 172.976 253.039Z" fill="#A88FAC"/>
<path d="M167.766 261.954C167.766 261.954 177.94 254.315 184.33 256.818C190.721 259.321 192.466 260.696 196.537 259.169C200.607 257.641 202.346 262.271 202.346 262.271L176.994 269.593L167.766 261.954Z" fill="#F8F9FA"/>
<path opacity="0.05" d="M154.038 275.311C154.038 275.311 158.691 263.294 164.306 260.967L154.038 275.311Z" fill="black"/>
<path opacity="0.05" d="M148.029 271.433C148.029 271.433 152.682 259.415 158.297 257.088L148.029 271.433Z" fill="black"/>
<path opacity="0.05" d="M256.909 274.342C256.909 274.342 273.356 266.397 284.417 267.172C295.477 267.948 297.398 260.973 297.398 260.973" fill="black"/>
<path d="M185.758 472.707C184.389 471.431 183.103 469.927 182.703 468.1C182.304 466.272 183.085 464.074 184.836 463.398C186.792 462.646 188.889 463.986 190.475 465.379C192.061 466.771 193.882 468.317 195.955 468.023C194.887 467.054 194.088 465.825 193.636 464.455C193.184 463.086 193.095 461.622 193.376 460.207C193.467 459.624 193.715 459.075 194.093 458.621C195.18 457.446 197.153 457.957 198.451 458.874C202.563 461.812 203.738 467.412 203.767 472.477C204.184 470.65 203.832 468.746 203.844 466.871C203.855 464.997 204.367 462.922 205.947 461.912C206.931 461.383 208.037 461.123 209.154 461.159C211.016 461.089 213.089 461.277 214.358 462.64C215.938 464.333 215.533 467.171 214.153 469.034C212.772 470.897 210.687 472.066 208.766 473.353C207.224 474.273 205.909 475.528 204.919 477.026C204.801 477.235 204.705 477.456 204.631 477.684H192.971C190.353 476.358 187.927 474.684 185.758 472.707Z" fill="#6C63FF"/>
<path d="M455.096 420.318C454.188 419.577 453.526 418.577 453.199 417.45C452.952 416.31 453.44 414.947 454.526 414.512C455.742 414.048 457.046 414.888 458.051 415.746C459.055 416.604 460.165 417.574 461.458 417.392C460.793 416.789 460.296 416.025 460.015 415.173C459.734 414.322 459.679 413.412 459.854 412.532C459.911 412.168 460.065 411.827 460.3 411.545C460.976 410.822 462.204 411.133 463.014 411.703C465.587 413.513 466.304 416.992 466.321 420.16C466.58 419.025 466.362 417.838 466.368 416.675C466.374 415.511 466.691 414.218 467.678 413.596C468.291 413.265 468.98 413.103 469.675 413.125C470.85 413.084 472.119 413.202 472.912 414.048C473.893 415.1 473.64 416.863 472.783 418.021C471.925 419.178 470.627 419.907 469.434 420.706C468.476 421.279 467.659 422.06 467.044 422.992C466.972 423.121 466.913 423.257 466.868 423.397H459.578C457.952 422.578 456.445 421.542 455.096 420.318Z" fill="#6C63FF"/>
</g>
<defs>
<filter id="filter0_dd" x="92.5086" y="-0.00360107" width="532.492" height="471.458" filterUnits="userSpaceOnUse" color-interpolation-filters="sRGB">
<feFlood flood-opacity="0" result="BackgroundImageFix"/>
<feColorMatrix in="SourceAlpha" type="matrix" values="0 0 0 0 0 0 0 0 0 0 0 0 0 0 0 0 0 0 127 0"/>
<feOffset dy="4"/>
<feGaussianBlur stdDeviation="2"/>
<feColorMatrix type="matrix" values="0 0 0 0 0 0 0 0 0 0 0 0 0 0 0 0 0 0 0.25 0"/>
<feBlend mode="normal" in2="BackgroundImageFix" result="effect1_dropShadow"/>
<feColorMatrix in="SourceAlpha" type="matrix" values="0 0 0 0 0 0 0 0 0 0 0 0 0 0 0 0 0 0 127 0"/>
<feOffset dy="4"/>
<feGaussianBlur stdDeviation="2"/>
<feColorMatrix type="matrix" values="0 0 0 0 0 0 0 0 0 0 0 0 0 0 0 0 0 0 0.25 0"/>
<feBlend mode="normal" in2="effect1_dropShadow" result="effect2_dropShadow"/>
<feBlend mode="normal" in="SourceGraphic" in2="effect2_dropShadow" result="shape"/>
</filter>
<linearGradient id="paint0_linear" x1="246.207" y1="361.325" x2="246.207" y2="209.46" gradientUnits="userSpaceOnUse">
<stop stop-color="#808080" stop-opacity="0.25"/>
<stop offset="0.54" stop-color="#808080" stop-opacity="0.12"/>
<stop offset="1" stop-color="#808080" stop-opacity="0.1"/>
</linearGradient>
<clipPath id="clip0">
<rect width="621" height="491" fill="white"/>
</clipPath>
</defs>
</svg>
